/* XPM */
static char *player_back[] = {
/* columns rows colors chars-per-pixel */
"64 64 150 2 ",
"   c #3D3E2F",
".  c #353531",
"X  c #323234",
"o  c #343436",
"O  c #3A3A31",
"+  c #3F3F37",
"@  c #363638",
"#  c #373739",
"$  c #3B3B3D",
"%  c #3C3C3E",
"&  c #3D3D3F",
"*  c #3F4039",
"=  c #554206",
"-  c #725A00",
";  c #635B10",
":  c #636917",
">  c #686F16",
",  c #64611D",
"<  c #66681F",
"1  c #6C6D1B",
"2  c #6E6F1B",
"3  c #696A1D",
"4  c #70731B",
"5  c #72751B",
"6  c #4A4127",
"7  c #474129",
"8  c #4E4F28",
"9  c #524621",
"0  c #59492E",
"q  c #515327",
"w  c #545525",
"e  c #5D5F22",
"r  c #50522B",
"t  c #56512F",
"y  c #404130",
"u  c #4A4B32",
"i  c #4A4B39",
"p  c #635A23",
"a  c #6B5132",
"s  c #6A5135",
"d  c #6F5235",
"f  c #655B3A",
"g  c #736B2A",
"h  c #6F7223",
"j  c #737223",
"k  c #737521",
"l  c #777825",
"z  c #787B21",
"x  c #70762D",
"c  c #777A2D",
"v  c #7E643E",
"b  c #787B31",
"n  c #434345",
"m  c #454544",
"M  c #464648",
"N  c #474749",
"B  c #48484A",
"V  c #49494B",
"C  c #4B4B4D",
"Z  c #4F4F51",
"A  c #515153",
"S  c #525254",
"D  c #545456",
"F  c #555557",
"G  c #565658",
"H  c #58585A",
"J  c #5A5A5C",
"K  c #5D5D5F",
"L  c #675547",
"P  c #615655",
"I  c #675C5A",
"U  c #755752",
"Y  c #785F5C",
"T  c #5E5E60",
"R  c #5F5F61",
"E  c #606062",
"W  c #626264",
"Q  c #646466",
"!  c #656567",
"~  c #666668",
"^  c #69696B",
"/  c #6D6D6F",
"(  c #716664",
")  c #7E6561",
"_  c #6E6E70",
"`  c #717173",
"'  c #727274",
"]  c #747476",
"[  c #757577",
"{  c #7F7471",
"}  c #767678",
"|  c #79797B",
" . c #7B7B7D",
".. c #7C7C7E",
"X. c #7D7D7F",
"o. c #A2783C",
"O. c #845B44",
"+. c #976D53",
"@. c #916E58",
"#. c #977453",
"$. c #A17C56",
"%. c #8E7869",
"&. c #847976",
"*. c #8C7B70",
"=. c #7F8124",
"-. c #7D8036",
";. c #80822C",
":. c #B4983E",
">. c #A2814F",
",. c #9F8865",
"<. c #9E8675",
"1. c #C6A740",
"2. c #7F7F81",
"3. c #808082",
"4. c #828284",
"5. c #848486",
"6. c #858587",
"7. c #8A8882",
"8. c #868688",
"9. c #868689",
"0. c #8A8A8C",
"q. c #8B8B8D",
"w. c #8C8C8E",
"e. c #918685",
"r. c #8F9081",
"t. c #8E8E90",
"y. c #8F8F91",
"u. c #929294",
"i. c #969698",
"p. c #979799",
"a. c #98989A",
"s. c #9C9C9E",
"d. c #A28D87",
"f. c #AF9C97",
"g. c #9CA8AD",
"h. c #A1A1A3",
"j. c #A5A3A1",
"k. c #A5A5A7",
"l. c #AAA3A4",
"z. c #A6A6A9",
"x. c #AAA7A9",
"c. c #B3B0A9",
"v. c #ADADB0",
"b. c #B2B2B6",
"n. c #B4B4B7",
"m. c #B8B6B7",
"M. c #B7B7BB",
"N. c #C3C3C6",
"B. c #CACACE",
"V. c #D2D2D6",
/* pixels */
"5 5 5 5 5 5 5 5 5 5 5 5 5 5 5 5 5 5 5 5 5 5 5 5 5 5 5 5 5 5 5 5 5 5 5 5 5 5 5 5 5 5 5 5 5 5 5 5 5 5 5 5 5 5 5 5 5 5 5 5 5 5 5 5 ",
"5 5 5 5 5 5 5 5 5 5 5 5 5 5 5 5 5 5 5 5 5 5 5 5 5 5 5 5 5 5 5 5 5 5 5 5 5 5 5 5 5 5 5 5 5 5 5 5 5 5 5 5 5 5 5 5 5 5 5 5 5 5 5 5 ",
"5 5 5 5 5 5 5 5 5 5 5 5 5 5 5 5 5 5 5 5 5 5 5 5 5 5 5 5 5 5 5 5 5 5 5 5 5 5 5 5 5 5 5 5 5 5 5 5 5 5 5 5 5 5 5 5 5 5 5 5 5 5 5 5 ",
"5 5 5 5 5 5 5 5 5 5 5 5 5 5 5 5 5 5 5 5 5 5 5 5 5 5 5 5 5 5 5 5 5 5 5 5 5 5 5 5 5 5 5 5 5 5 5 5 5 5 5 5 5 5 5 5 5 5 5 5 5 5 5 5 ",
"5 5 5 5 5 5 5 5 5 5 5 5 5 5 5 5 5 5 5 5 5 5 5 5 5 5 5 5 5 5 5 5 5 5 5 5 5 5 5 5 5 5 5 5 5 5 5 5 5 5 5 5 5 5 5 5 5 5 5 5 5 5 5 5 ",
"5 5 5 5 5 5 5 5 5 5 5 5 5 5 5 5 5 5 5 5 5 5 5 5 5 5 5 5 5 5 5 5 5 5 5 5 5 5 5 5 5 5 5 5 5 5 5 5 5 5 5 5 5 5 5 5 5 5 5 5 5 5 5 5 ",
"5 5 5 5 5 5 5 5 5 5 5 5 5 5 5 5 5 5 5 5 5 5 5 5 5 5 5 5 5 5 5 5 5 5 5 5 5 5 5 5 5 5 5 5 5 5 5 5 5 5 5 5 5 5 5 5 5 5 5 5 5 5 5 5 ",
"5 5 5 5 5 5 5 5 5 5 5 5 5 5 5 5 5 5 5 5 5 5 5 5 5 5 5 5 5 5 5 5 5 5 5 5 5 5 5 5 5 5 5 5 5 5 5 5 5 5 5 5 5 5 5 5 5 5 5 5 5 5 5 5 ",
"5 5 5 5 5 5 5 5 5 5 5 5 5 5 5 5 5 5 5 5 5 5 5 5 5 5 5 5 5 5 5 5 5 5 5 5 4 4 4 4 5 5 5 5 5 5 5 5 5 5 5 5 5 5 5 5 5 5 5 5 5 5 5 5 ",
"5 5 5 5 5 5 5 5 5 5 5 5 5 5 5 5 5 5 5 5 5 5 5 5 5 5 5 5 5 5 5 5 5 5 5 5 4 4 4 4 5 5 5 5 5 5 5 5 5 5 5 5 5 5 5 5 5 5 5 5 5 5 5 5 ",
"5 5 5 5 5 5 5 5 5 5 5 5 5 5 =.=.5 5 5 5 5 5 5 5 5 5 < < < < < < < < < < 2 2 4 4 5 5 5 5 5 5 5 5 5 5 5 5 5 5 5 5 5 5 5 5 5 5 5 5 ",
"5 5 5 5 5 5 5 5 5 5 5 5 5 5 =.=.5 5 5 5 5 5 5 5 5 5 < < < < < < < < < < 2 2 4 4 5 5 5 5 5 5 5 5 5 5 5 5 5 5 5 5 5 5 5 5 5 5 5 5 ",
"5 5 5 5 5 5 5 5 5 5 5 5 z z z z 5 5 5 5 =.=.l l r r m m V V H H H H m m u u 8 8 5 5 5 5 5 5 5 5 5 5 5 5 5 5 5 5 5 5 5 5 5 5 5 5 ",
"5 5 5 5 5 5 5 5 5 5 5 5 z z z z 5 5 5 5 =.=.l l r r m m V V H H H H m m u u 8 8 5 5 5 5 5 5 5 5 5 5 5 5 5 5 5 5 5 5 5 5 5 5 5 5 ",
"5 5 5 5 5 5 z z 5 5 5 5 z z > > 5 5 z z z z + + E E ` ` y.y.u.u.u.u.6.6._ _ S S r r 5 5 5 5 5 5 5 5 5 5 5 5 5 5 5 5 5 5 5 5 5 5 ",
"5 5 5 5 5 5 z z 5 5 5 5 z z > > 5 5 z z z z + + E E ` ` y.y.u.u.u.u.6.6._ _ S S r r 5 5 5 5 5 5 5 5 5 5 5 5 5 5 5 5 5 5 5 5 5 5 ",
"5 5 5 5 5 5 5 5 =.=.z z > > 5 5 5 5 h h * * W W q.q.p.p.k.k.M.M.M.M.s.s.p.p. . .S S q q 5 5 5 5 5 5 5 5 5 5 5 5 5 5 5 5 5 5 5 5 ",
"5 5 5 5 5 5 5 5 =.=.z z > > 5 5 5 5 h h * * W W q.q.p.p.k.k.M.M.M.M.s.s.p.p. . .S S q q 5 5 5 5 5 5 5 5 5 5 5 5 5 5 5 5 5 5 5 5 ",
"5 5 5 5 5 5 5 5 z z z z 1.1.1.1.k k i i W W q.q.p.p.z.z.M.M.M.M.M.M.b.b.s.s.i.i.X. .Z Z 8 8 5 5 5 5 5 5 5 5 5 5 5 5 5 5 5 5 5 5 ",
"5 5 5 5 5 5 5 5 z z z z 1.1.1.1.k k i i W W q.q.p.p.z.z.M.M.M.M.M.M.b.b.s.s.i.i. .X.Z Z 8 8 5 5 5 5 5 5 5 5 5 5 5 5 5 5 5 5 5 5 ",
"5 5 5 5 5 5 5 5 5 5 1.1.o.o.o.o.:.:.S S [ [ p.p.p.p.M.M.M.M.M.M.M.M.M.M.g.g.p.i.q.0.' [ X X 5 5 5 5 5 5 5 5 5 5 5 5 5 5 5 5 5 5 ",
"5 5 5 5 5 5 5 5 5 5 1.1.o.o.o.o.:.:.S S [ [ p.p.p.p.M.M.M.M.M.M.M.M.M.M.g.g.i.i.0.0.' [ X X 5 5 5 5 5 5 5 5 5 5 5 5 5 5 5 5 5 5 ",
"5 5 5 5 5 5 5 5 5 5 : : 1.1.1.1.@ @ ! ! u.u.p.p.p.p.p.p.v.v.v.v.v.v.k.k.p.p.p.p.p.p.3.3.A A 8 8 5 5 5 5 c c k k 5 5 5 5 5 5 5 5 ",
"5 5 5 5 5 5 5 5 5 5 : : 1.1.1.1.@ @ ! ! u.u.p.p.p.p.p.p.v.v.v.v.v.v.k.k.p.p.p.p.p.a.3.3.A S 8 8 5 5 5 5 c c k k 5 5 5 5 5 5 5 5 ",
"5 5 5 5 5 5 5 5 5 5 5 5 : : : : @ @ ! ! u.u.p.p.p.p.p.p.p.p.p.p.p.p.p.p.p.p.p.p.p.p.<.<.Z Z u u -.-.=.=.r.r.b b 5 5 5 5 5 5 5 5 ",
"5 5 5 5 5 5 5 5 5 5 5 5 : : : : @ @ ! ! u.u.p.p.p.p.p.p.p.p.p.p.p.p.p.p.p.p.p.p.p.p.<.<.Z Z u u -.-.=.=.r.r.b b 5 5 5 5 5 5 5 5 ",
"=.=.z z 5 5 5 5 5 5 5 5 5 5     / / n n ` ` p.p.p.p.p.p.p.p.p.p.p.p.p.p.p.p.p.p.0.0.R R X o G G < < s.s.n.n.-.-.5 5 ;.;.;.;.5 5 ",
"=.=.z z 5 5 5 5 5 5 5 5 5 5     / / n n ` ` p.p.p.p.p.p.p.p.p.p.p.p.p.p.p.p.p.p.0.q.R E o o G G < < s.s.n.n.-.-.5 5 ;.;.;.;.5 5 ",
"=.=.z z z z 5 5 5 5 5 5 5 5     ! ! n n ~ ~  . .w.w.p.p.p.p.p.p.p.p.p.p.y.y.q.w.' ' J J # # S S X.X.V.V.n.n.x x =.=.5 5 4 4 5 5 ",
"=.=.z z z z 5 5 5 5 5 5 5 5     ! ! n n ~ ~  . .w.w.p.p.p.p.p.p.p.p.p.p.y.y.w.w.' ' J J # # S S X.X.V.V.n.n.x x =.=.5 5 4 4 5 5 ",
"> > z z z z 5 5 5 5 5 5 5 5     $ $ n n F F W W } } 2.2.2.2.3.3.3.3.3.3.| | } } J J S S X X # # s.s.V.V.m.m.c c 5 5 g.g.g.g.5 5 ",
"> > z z z z 5 5 5 5 5 5 5 5     $ $ n n F F W W } } 2.2.2.2.3.3.3.3.3.3.| | } } J J S S X X # @ s.s.V.V.m.m.c c 5 5 g.g.g.g.5 5 ",
"5 5 > > > > 5 5 5 5 5 5 5 5 1.1.@ @ G G S S S S G G ` ` } } ` ` [ [ [ [ R K F S G G F F A A K K N.N.B.B.j.j.5 5 z z >.>.g.g.5 5 ",
"5 5 > > > > 5 5 5 5 5 5 5 5 1.1.@ @ G G S S S S G G ` ` } } ` ` [ [ [ } K R F F G G F F A A K K N.N.B.B.j.j.5 5 z z >.>.g.g.5 5 ",
"5 5 5 5 5 5 5 5 5 5 5 5 5 5 1.1.f f G G W W R R S S S S G G G G F F S S S F S F R R ~ ~ V V X.X.B.B.n.m.,.,.c.c.5 5 : : : : 5 5 ",
"5 5 5 5 5 5 5 5 5 5 5 5 5 5 1.1.f f G G W W R R S S S S G G G G S F F F F F S F R E ~ ~ M V X.X.B.B.m.m.,.,.c.c.5 5 : : : : 5 5 ",
"5 5 5 5 5 5 5 5 5 5 5 5 5 5 : : y y M M n n R R _ _ _ _ 8.8.8.8.9.9.X.X./ / / / S S % & C C 9.9.V.V.a.a.c.c.: : 5 5 5 5 5 5 5 5 ",
"5 5 5 5 5 5 5 5 5 5 5 5 5 5 : : y y M M n n R R _ _ _ _ 8.8.8.8.9.9.X.X./ / / / S S & & C C 9.9.V.V.a.a.c.c.: : 5 5 5 5 5 5 5 5 ",
"5 5 5 5 5 5 5 5 5 5 5 5 5 5   * } } h.h.s.s.X X X X G G H H G G H H H H * * . . R R v.v.a.a.F F X.X.: : : : 5 5 5 5 5 5 5 5 5 5 ",
"5 5 5 5 5 5 5 5 5 5 5 5 5 5   O } } h.h.s.s.X X X X G G H H G G H H H H * * . . R R v.v.a.a.F F X.X.: : : : 5 5 5 5 5 5 5 5 5 5 ",
"5 5 5 5 5 5 5 5 5 5 5 5 5 5 w w N N ` `  . .M M J J 4.4.8.8.4.4.6.6.4.6._ _ S A ! ! 9.9.a.a.F F R R ; ; 5 5 5 5 5 5 5 5 5 5 5 5 ",
"5 5 5 5 5 5 5 5 5 5 5 5 5 5 w w V N ` `  . .M M J J 4.4.8.8.4.4.4.6.4.6._ _ A A W ! 9.9.a.a.F F R E ; ; 5 5 5 5 5 5 5 5 5 5 5 5 ",
"5 5 5 5 5 5 5 5 5 5 5 5 5 5 5 5 # @ R R _ _ $ $ ^ ^  . .p.p.p.p.p.p.y.y.} } J J M M 2.3.x.x.@.@.0 0 - - ; ; 5 5 5 5 5 5 5 5 5 5 ",
"5 5 5 5 5 5 5 5 5 5 5 5 5 5 5 5 @ @ R R _ _ $ $ ^ ^  . .p.p.p.p.p.p.y.w.} } J J M M 3.3.x.x.@.@.0 0 - - ; ; 5 5 5 5 5 5 5 5 5 5 ",
"5 5 5 5 5 5 5 5 5 5 5 5 5 5 5 5 2 2 d d O.O.6 6 n n Z Z _ _ ` ` ` ` ! ! Z Z @ @ X X H H $.$.+.+.0 0 = = 5 5 5 5 5 5 5 5 5 5 5 5 ",
"5 5 5 5 5 5 5 5 5 5 5 5 5 5 5 5 2 2 d d O.O.6 6 n n Z Z _ _ ` ' ` ` W ! Z Z @ @ X X H H $.$.+.+.0 0 = = 5 5 5 5 5 5 5 5 5 5 5 5 ",
"5 5 5 5 5 5 5 5 5 5 5 5 5 5 5 5 5 5 j j 7 6 N N _ _ P P ( ( { { &.&.I I / / W W % % q q d d s s p p 5 5 5 5 5 5 5 5 5 5 5 5 5 5 ",
"5 5 5 5 5 5 5 5 5 5 5 5 5 5 5 5 5 5 j j 7 6 N V _ _ P J ( ( { { &.&.I I / / ! ! % % q q d d s s p p 5 5 5 5 5 5 5 5 5 5 5 5 5 5 ",
"5 5 5 5 5 5 5 5 5 5 5 5 5 5 5 5 5 5 =.=.O O R R z.z.d.d.Y Y Y Y Y Y ) ) l.l.u.u.N N e e 4 4 4 4 5 5 5 5 5 5 5 5 5 5 5 5 5 5 5 5 ",
"5 5 5 5 5 5 5 5 5 5 5 5 5 5 5 5 5 5 =.=.O O R R z.z.d.d.Y Y Y Y Y Y ) ) l.l.u.u.N N e e 4 4 4 4 5 5 5 5 5 5 5 5 5 5 5 5 5 5 5 5 ",
"5 5 5 5 5 5 5 5 5 5 5 5 5 5 5 5 5 5 > > z z i i e.e.f.f.*.*.6 6 9 9 U U U U 7.7.q q 5 5 4 4 5 5 5 5 5 5 5 5 5 5 5 5 5 5 5 5 5 5 ",
"5 5 5 5 5 5 5 5 5 5 5 5 5 5 5 5 5 5 > > z z i i e.e.f.f.*.%.6 6 9 9 U U U U 7.7.q q 5 5 4 4 5 5 5 5 5 5 5 5 5 5 5 5 5 5 5 5 5 5 ",
"5 5 5 5 5 5 5 5 5 5 5 5 5 5 5 5 5 5 5 5 5 5 3 3 L L <.<.%.%.t t ; ; s s a a , , 5 5 5 5 5 5 5 5 5 5 5 5 5 5 5 5 5 5 5 5 5 5 5 5 ",
"5 5 5 5 5 5 5 5 5 5 5 5 5 5 5 5 5 5 5 5 5 4 3 3 L L <.<.%.%.t t ; ; s s a a , , 5 5 5 5 5 5 5 5 5 5 5 5 5 5 5 5 5 5 5 5 5 5 5 5 ",
"5 5 5 5 5 5 5 5 5 5 5 5 5 5 5 5 5 5 5 5 5 5 1 1 v v $.$.#.#.g g 5 5 j j 2 2 5 5 5 5 5 5 5 5 5 5 5 5 5 5 5 5 5 5 5 5 5 5 5 5 5 5 ",
"5 5 5 5 5 5 5 5 5 5 5 5 5 5 5 5 5 5 5 5 5 5 2 2 v v $.$.#.#.g g 5 5 j j 2 2 5 5 5 5 5 5 5 5 5 5 5 5 5 5 5 5 5 5 5 5 5 5 5 5 5 5 ",
"5 5 5 5 5 5 5 5 5 5 5 5 5 5 5 5 5 5 5 5 5 5 5 5 5 5 5 5 5 5 5 5 5 5 5 5 5 5 5 5 5 5 5 5 5 5 5 5 5 5 5 5 5 5 5 5 5 5 5 5 5 5 5 5 ",
"5 5 5 5 5 5 5 5 5 5 5 5 5 5 5 5 5 5 5 5 5 5 5 5 5 5 5 5 5 5 5 5 5 5 5 5 5 5 5 5 5 5 5 5 5 5 5 5 5 5 5 5 5 5 5 5 5 5 5 5 5 5 5 5 ",
"5 5 5 5 5 5 5 5 5 5 5 5 5 5 5 5 5 5 5 5 5 5 5 5 5 5 5 5 5 5 5 5 5 5 5 5 5 5 5 5 5 5 5 5 5 5 5 5 5 5 5 5 5 5 5 5 5 5 5 5 5 5 5 5 ",
"5 5 5 5 5 5 5 5 5 5 5 5 5 5 5 5 5 5 5 5 5 5 5 5 5 5 5 5 5 5 5 5 5 5 5 5 5 5 5 5 5 5 5 5 5 5 5 5 5 5 5 5 5 5 5 5 5 5 5 5 5 5 5 5 ",
"5 5 5 5 5 5 5 5 5 5 5 5 5 5 5 5 5 5 5 5 5 5 5 5 5 5 5 5 5 5 5 5 5 5 5 5 5 5 5 5 5 5 5 5 5 5 5 5 5 5 5 5 5 5 5 5 5 5 5 5 5 5 5 5 ",
"5 5 5 5 5 5 5 5 5 5 5 5 5 5 5 5 5 5 5 5 5 5 5 5 5 5 5 5 5 5 5 5 5 5 5 5 5 5 5 5 5 5 5 5 5 5 5 5 5 5 5 5 5 5 5 5 5 5 5 5 5 5 5 5 ",
"5 5 5 5 5 5 5 5 5 5 5 5 5 5 5 5 5 5 5 5 5 5 5 5 5 5 5 5 5 5 5 5 5 5 5 5 5 5 5 5 5 5 5 5 5 5 5 5 5 5 5 5 5 5 5 5 5 5 5 5 5 5 5 5 ",
"5 5 5 5 5 5 5 5 5 5 5 5 5 5 5 5 5 5 5 5 5 5 5 5 5 5 5 5 5 5 5 5 5 5 5 5 5 5 5 5 5 5 5 5 5 5 5 5 5 5 5 5 5 5 5 5 5 5 5 5 5 5 5 5 "
};
