/* XPM */
static char *player_right[] = {
/* columns rows colors chars-per-pixel */
"64 64 229 2 ",
"   c #2E1E22",
".  c #2F2226",
"X  c #302024",
"o  c #39362F",
"O  c #3A3A2E",
"+  c #353531",
"@  c #343436",
"#  c #353537",
"$  c #3E3F30",
"%  c #363638",
"&  c #3B3B38",
"*  c #38383A",
"=  c #3D3938",
"-  c #3F383B",
";  c #3C3C3A",
":  c #3B3B3D",
">  c #3C3C3E",
",  c #3D3D3F",
"<  c #453424",
"1  c #413D2B",
"2  c #50382D",
"3  c #403E3A",
"4  c #553831",
"5  c #5A3F36",
"6  c #584F1F",
"7  c #5D551E",
"8  c #5D571E",
"9  c #595E1B",
"0  c #5E581E",
"q  c #605A1D",
"w  c #636917",
"e  c #686F16",
"r  c #64611D",
"t  c #65631D",
"y  c #65671F",
"u  c #66681F",
"i  c #676A1E",
"p  c #6C6C1B",
"a  c #686A1D",
"s  c #6A6C1D",
"d  c #6B6E1D",
"f  c #6F721B",
"g  c #70731A",
"h  c #72751B",
"j  c #72751F",
"k  c #4A4B2A",
"l  c #494C29",
"z  c #4E4F2D",
"x  c #534721",
"c  c #584A24",
"v  c #5D5F22",
"b  c #464830",
"n  c #434338",
"m  c #434439",
"M  c #45463D",
"N  c #46473F",
"B  c #484939",
"V  c #48483C",
"C  c #4D493C",
"Z  c #5A4932",
"A  c #5D473C",
"S  c #604D36",
"D  c #60483D",
"F  c #694E3C",
"G  c #6A523A",
"H  c #75553A",
"J  c #606221",
"K  c #616321",
"L  c #606222",
"P  c #676420",
"I  c #616426",
"U  c #6D6F23",
"Y  c #6D6F27",
"T  c #666828",
"R  c #717220",
"E  c #717322",
"W  c #727422",
"Q  c #747722",
"!  c #787B21",
"~  c #757828",
"^  c #76782A",
"/  c #6F7134",
"(  c #787A30",
")  c #3E3E40",
"_  c #3F3F41",
"`  c #424241",
"'  c #404042",
"]  c #474743",
"[  c #434345",
"{  c #444446",
"}  c #454547",
"|  c #4F4B41",
" . c #4B4844",
".. c #484846",
"X. c #474749",
"o. c #494748",
"O. c #4F4649",
"+. c #4A4A48",
"@. c #48484A",
"#. c #49494B",
"$. c #4C4848",
"%. c #4A4A4C",
"&. c #4B4B4D",
"*. c #565044",
"=. c #5C5540",
"-. c #564C50",
";. c #505052",
":. c #515153",
">. c #525254",
",. c #535355",
"<. c #545154",
"1. c #545456",
"2. c #5B5256",
"3. c #565658",
"4. c #5A5A5B",
"5. c #5B5B5D",
"6. c #5C5C5F",
"7. c #5D5D5F",
"8. c #745C45",
"9. c #7D5D45",
"0. c #755648",
"q. c #6C6D57",
"w. c #77685B",
"e. c #5E5E60",
"r. c #5E5E61",
"t. c #606062",
"y. c #616163",
"u. c #676363",
"i. c #626264",
"p. c #646466",
"a. c #696064",
"s. c #676769",
"d. c #68686A",
"f. c #68686B",
"g. c #69696B",
"h. c #6D6969",
"j. c #6C6C6E",
"k. c #6D6D6F",
"l. c #726E6E",
"z. c #737067",
"x. c #797464",
"c. c #6E6E70",
"v. c #6F6F71",
"b. c #736E71",
"n. c #717173",
"m. c #737375",
"M. c #767678",
"N. c #777779",
"B. c #78787A",
"V. c #79797B",
"C. c #7A7A7C",
"Z. c #7A7A7D",
"A. c #7C7C7E",
"S. c #7D7D7F",
"D. c #946F3A",
"F. c #8A773B",
"G. c #A2783C",
"H. c #875C47",
"J. c #8F6E4D",
"K. c #846955",
"L. c #80675B",
"P. c #836E5D",
"I. c #8A6E58",
"U. c #87705E",
"Y. c #88715F",
"T. c #89725F",
"R. c #A37A5A",
"E. c #A77E5D",
"W. c #7F8124",
"Q. c #7F814A",
"!. c #C3A43F",
"~. c #84865A",
"^. c #A2814F",
"/. c #8A8B64",
"(. c #8E8F7D",
"). c #8F9073",
"_. c #C6A740",
"`. c #C3A645",
"'. c #7D7D80",
"]. c #7E7E80",
"[. c #7F7F81",
"{. c #7F7F82",
"}. c #808082",
"|. c #818183",
" X c #828284",
".X c #848486",
"XX c #868688",
"oX c #878789",
"OX c #8A8A8C",
"+X c #8C8C8E",
"@X c #8C8C8F",
"#X c #8D8D8F",
"$X c #8E8E90",
"%X c #8E8E91",
"&X c #8F8F92",
"*X c #909092",
"=X c #919193",
"-X c #949490",
";X c #929294",
":X c #939395",
">X c #949496",
",X c #959597",
"<X c #9D9D92",
"1X c #979799",
"2X c #9B9B9D",
"3X c #9C9C9E",
"4X c #9D9D9F",
"5X c #9E9EA1",
"6X c #9F9FA1",
"7X c #9CA8AD",
"8X c #A3A3A6",
"9X c #A5A5A7",
"0X c #A5A5A8",
"qX c #A8A8AB",
"wX c #AAAAAD",
"eX c #ABABAE",
"rX c #B3B0A9",
"tX c #ADADB0",
"yX c #AEAEB0",
"uX c #B0B0B3",
"iX c #B1B1B4",
"pX c #B1B1B5",
"aX c #B5B5B9",
"sX c #B7B7BB",
"dX c #BDBDBC",
"fX c #C3C3C5",
"gX c #C6C6C9",
"hX c #CECED2",
"jX c #D2D2D6",
/* pixels */
"h h h h h h h h h h h h h h h h h h h h h h h h h h h h h h h h h h h h h h h h h h h h h h h h h h h h h h h h h h h h h h h h ",
"h h h h h h h h h h h h h h h h h h h h h h h h h h h h h h h h h h h h h h h h h h h h h h h h h h h h h h h h h h h h h h h h ",
"h h h h h h h h h h h h h h h h h h h h h h h h h h h h h h h h h h h h h h h h h h h h h h h h h h h h h h h h h h h h h h h h ",
"h h h h h h h h h h h h h h h h h h h h h h h h h h h h h h h h h h h h h h h h h h h h h h h h h h h h h h h h h h h h h h h h ",
"h h h h h h h h h h h h h h h h h h h h h h h h h h h h h h h h h h h h h h h h h h h h h h h h h h h h h h h h h h h h h h h h ",
"h h h h h h h h h h h h h h h h h h h h h h h h h h h h h h h h h h h h h h h h h h h h h h h h h h h h h h h h h h h h h h h h ",
"h h h h h h h h h h h h h h h h h h h h h h h h h h h h h h h h h h h h h h h h h h h h h h h h h h h h h h h h h h h h h h h h ",
"h h h h h h h h h h h h h h h h h h h h h h h h h h h h h h h h h h h h h h h h h h h h h h h h h h h h h h h h h h h h h h h h ",
"h h h h h h h h h h h h h h h h h h h h h h h h h h h h h h h h h h h h h h h h h h h h h h h h h h h h h h h h h h h h h h h h ",
"h h h h h h h h h h h h h h h h h h h h h h h f h h h h h h h h h h h h h f h h h h h h h h h h h h h h h h h h h h h h h h h h ",
"h h h h h h h h h h h h h h h h h h h h h h d s P P * * > > ) ) , , & * J J s s h h h h h h h h W.W.h h h h h h h h h h h h h h ",
"h h h h h h h h h h h h h h h h h h h h h h s s i P % & : : ) > , > * * J J i i h h h h h h h h W.W.h h h h h h h h h h h h h h ",
"h h h h h h h h h h h h h h h h h h h h i i B B ,.>.g.g.'.}.oXoX X Xj.j.3.3.N N Y Y W.W.h h h h ! ! ! ! h h h h h h h h h h h h ",
"h h h h h h h h h h h h h h h h h h h h i i B B ,.>.g.g.}.'..XoX X Xj.j.3.3.N N Y Y W.W.h h h h ! ! ! ! h h h h h h h h h h h h ",
"h h h h h h h h h h h h h h h h h h h h m m i.i.$X$X;X;X0X0XiXiXwXwX:X:X*X*Xg.g.M M E E ! ! h h e e ! ! h h h h ! ! h h h h h h ",
"h h h h h h h h h h h h h h h h h h h f m m i.i.$X$X;X;X0X0XiXiXwXwX:X:X*X*Xg.g.M M E E ! ! h h e e ! ! h h h h ! ! h h h h h h ",
"h h h h h h h h h h h h h h h h s s & & p.p.+X+X1X1X8X8XsXsXsXsXsXsXqXqX5X>X:X&Xg.g.> > U U h h h h e e ! ! W.W.h h h h h h h h ",
"h h h h h h h h h h h h h h h h s s & & p.p.+X+X1X1X8X8XsXsXsXsXsXaXqXwX:X5X&X&Xg.g.> ; U U h h h h e e ! ! W.W.h h h h h h h h ",
"h h h h h h h h h h h h h h h h k k y.y.}.}.1X1X1X1XsXsXsXsXsXsXsXsXaXaX5X5X>X>X.X.Xs.s.$ $ j W._._._._.! ! ! ! h h h h h h h h ",
"h h h h h h h h h h h h h h h h k k y.y.}.}.1X1X1X1XsXsXsXsXsXsXsXsXaXaX:X5X5X>X.X.Xs.s.$ $ W.j _._._._.! ! ! ! h h h h h h h h ",
"h h h h h h h h h h h h h h K K ] ] m.m.;X;X1X1X1X1X8X8XsXsXsXsXsXsXwXqX5X>X>X>X,X:XV.V.+.+.F.F.G.G.G.G._._.h h h h h h h h h h ",
"h h h h h h h h h h h h h h K K ] ] m.m.;X;X1X1X1X1X8X8XsXsXsXsXsXsXqXqX,X&X5X>X;X:XV.V.+.#.F.F.G.G.G.G._._.h h h h h h h h h h ",
"h h h h h h h h h h h h h h v v X.X.m.m.1X1X1X1X1X1X,X,X'.S.) > ) ) r.r.'.f.&X&X{.Q.1.1.> ) l l !.!._._.w w h h h h h h h h h h ",
"h h h h h h h h h h h h h h v v X.X.m.m.1X1X1X1X1X1X,X,XS.S.> ) ) ) r.r.k.'.&X,X{.S.1.1.> > l l !.!._._.w w h h h h h h h h h h ",
"! ! ! ! h h h h h h h h W.W.T T X.X.m.m.+X$X+X$XC.C.n.n.,.,.|.|.5X5X&X&X{.{.{.{.N.N.r.r.'.'.[ [ 9 9 w w h h h h h h h h h h h h ",
"! ! ! ! h h h h h h h h W.W.T T X.X.m.m.$X+X$X+XC.C.n.n.,.,.|.|.0X0X&X&X{.{.{.{.N.N.y.y.S.}.{ { 9 9 w w h h h h h h h h h h h h ",
"h h W.W.W.W.h h ! ! ! ! W.W.v v X.X.m.m.N.N.s.s.oXoX$X$Xp.p.tXtX-.-.&X&X5X5X5X5XOXOXC.'.1.1.z z f f h h h h h h h h h h ! ! W.W.",
"h h W.W.W.W.h h ! ! ! ! W.W.v v X.X.m.m.N.N.s.s.oXoX$X$Xp.p.tXtX-.-.&X&X5X5X5X5XOXOX'.C.1.1.z z f f h h h h h h h h h h ! ! W.W.",
"h h e e ! ! ! ! e e ! ! e e T T X.X.1.1.7.7.c.c.,.,.f.f.'.'.tXtX<.<.X X                 . . # # u u h h h h h h h h ! ! ! ! W.W.",
"h h e e ! ! ! ! e e ! ! e e T T X.X.1.1.7.7.c.c.,.,.f.f.'.'.tXeX<.<.X                   . . # # u u h h h h h h h h ! ! ! ! W.W.",
"h h 7X7X7X7X! ! e e e e ! ! I I X.X.1.1.#.#.,.,.% @ &.&.s.f.N.M.5X5Xb.b.a.a.<.2.2.2.O.O.& - =.=.f i h h h h h h h h ! ! ! ! e e ",
"h h 7X7X7X7X! ! e e e e ! ! I I X.X.1.1.#.#.,.,.% % &.&.f.s.N.N.5X5Xb.b.a.a.2.2.2.2.O.O.- - =.=.i f h h h h h h h h ! ! ! ! e e ",
"h h 7X7X^.^.! ! h h rXrXrXrXQ U b b ,.:.:.:.' ' &.#.r.7.> ) w.w.c.c.>X>X5X5X{.{.v.v...X.C C D.D._._.h h h h h h h h e e e e h h ",
"h h 7X7X^.^.! ! h h rXrXrXrXQ Q b b :.,.:.:.' ' #.&.7.r.) ) w.w.c.c.>X>X5X5XS.{.v.k.X.X.C C D.D._._.h h h h h h h h e e e e h h ",
"h h w w w w h h rXrX^.^.^.^.rXrXh h + + 1.1.1.1.% % > ) ) _ P.P.U.Y.Y.Y.T.P.0.0.2 2 p d w w `.`.`.`.Q Q Q Q h h h h h h h h h h ",
"h h w w w w h h rXrX^.^.^.^.rXrXh h + + 1.1.1.1.% % ) ) ) [ P.P.Y.Y.Y.Y.I.P.0.0.2 2 p d w w `.`.`.`.Q Q Q ! h h h h h h h h h h ",
"h h h h h h h h w w rXrXrXrXw w K J ' ' s.s.V.C.p.p.r.7.= = A A D D 5 5 4 4 < < t t Q.Q././.uXuXuXuXeXeX(.(.~ ~ h h h h h h h h ",
"h h h h h h h h w w rXrXrXrXw w K J M ] s.s.C.C.p.p.7.r.= = A A D D 5 A 4 4 < < t t Q.Q././.uXuXuXuXeXeX(.(.~ ~ h h h h h h h h ",
"h h h h h h h h h h w w w w h h i i & & { X.:.:.{ { { X.o.o.o.O.h.h.l.l.u.u.$.$.q.q.dXdXgXgXjXjXtXuX<X<X~ ^ h h h h h h h h h h ",
"h h h h h h h h h h w w w w h h i P & : { { ;.:.{ { { { o.X.O.o.h.h.l.l.u.u. . .q.q.dXdXgXgXjXjXtXtX<X<X~ ^ h h h h h h h h h h ",
"h h h h h h h h h h h h h h h h h h h h J v X.X.;X;XiXiXC.'.m.m.pXaX9X9XB.B.&.&.$X$XhXhXfXfX-X-X( ( h h h h h h h h h h h h h h ",
"h h h h h h h h h h h h h h h h h h h h v v X.X.;X=XiXiXZ.Z.m.v.aXaX9X9XB.B.&.&.$XOXhXhXfXfX-X-X( ( h h h h h h h h h h h h h h ",
"h h h h h h h h h h h h h h h h h h h h y y N V oXoX5.5.r.r.e.e.M.M.|.|.p.p.> > {.{.).).~.~.h h h h h h h h h h h h h h h h h h ",
"h h h h h h h h h h h h h h h h h h h h y u V V .XoX5.5.r.r.e.5.M.M.|.|.p.p.> > {.'.).).~.~.h h h h h h h h h h h h h h h h h h ",
"h h h h h h h h h h h h h h h h h h h h h h y y ....c.c.2X2XK.K.8.8.| | O.&.m m / / h Q ! ! h h h h h h h h h h h h h h h h h h ",
"h h h h h h h h h h h h h h h h h h h h h h y y ....c.c.5X2XK.K.8.8.| C X.X.m m / / Q f ! ! h h h h h h h h h h h h h h h h h h ",
"h h h h h h h h h h h h h h h h h h h h h h h h + + 4.4.L.L.R.R.J.J.x.x.C.C.$ $ s e W.W.W.W.f h h h h h h h h h h h h h h h h h ",
"h h h h h h h h h h h h h h h h h h h h h h h h + + 4.4.L.L.R.R.J.J.x.x.C.C.$ $ e e W.W.W.W.h h h h h h h h h h h h h h h h h h ",
"h h h h h h h h h h h h h h h h h h h h h h h h 1 1 3 3 Z Z H H S S z.z.c.c.O O R R ! ! W.W.h h h h h h h h h h h h h h h h h h ",
"h h h h h h h h h h h h h h h h h h h h h h h h 1 1 3 3 Z Z H H S S z.z.c.c.O O R R ! ! W.! h h h h h h h h h h h h h h h h h h ",
"h h h h h h h h h h h h h h h h h h h h h h r r G G I.I.9.9.*.*.o o [ [ ) _ F F P P ! ! f e h h h h h h h h h h h h h h h h h h ",
"h h h h h h h h h h h h h h h h h h h h h h r r G G I.I.9.9.*.*.o o [ [ _ _ F F P P ! ! e e h h h h h h h h h h h h h h h h h h ",
"h h h h h h h h h h h h h h h h h h h h h h 0 0 H.H.E.E.E.E.c c h h q q x x 6 6 h h h h h h h h h h h h h h h h h h h h h h h h ",
"h h h h h h h h h h h h h h h h h h h h h h 0 0 H.H.E.E.E.E.c c h h q q x x 6 6 h h h h h h h h h h h h h h h h h h h h h h h h ",
"h h h h h h h h h h h h h h h h h h h h h h h h 0 8 8 7 7 7 f g h h h h h h h h h h h h h h h h h h h h h h h h h h h h h h h h ",
"h h h h h h h h h h h h h h h h h h h h h h h h 8 8 8 7 7 7 g g h h h h h h h h h h h h h h h h h h h h h h h h h h h h h h h h ",
"h h h h h h h h h h h h h h h h h h h h h h h h h h h h h h h h h h h h h h h h h h h h h h h h h h h h h h h h h h h h h h h h ",
"h h h h h h h h h h h h h h h h h h h h h h h h h h h h h h h h h h h h h h h h h h h h h h h h h h h h h h h h h h h h h h h h ",
"h h h h h h h h h h h h h h h h h h h h h h h h h h h h h h h h h h h h h h h h h h h h h h h h h h h h h h h h h h h h h h h h ",
"h h h h h h h h h h h h h h h h h h h h h h h h h h h h h h h h h h h h h h h h h h h h h h h h h h h h h h h h h h h h h h h h ",
"h h h h h h h h h h h h h h h h h h h h h h h h h h h h h h h h h h h h h h h h h h h h h h h h h h h h h h h h h h h h h h h h ",
"h h h h h h h h h h h h h h h h h h h h h h h h h h h h h h h h h h h h h h h h h h h h h h h h h h h h h h h h h h h h h h h h ",
"h h h h h h h h h h h h h h h h h h h h h h h h h h h h h h h h h h h h h h h h h h h h h h h h h h h h h h h h h h h h h h h h ",
"h h h h h h h h h h h h h h h h h h h h h h h h h h h h h h h h h h h h h h h h h h h h h h h h h h h h h h h h h h h h h h h h "
};
