/* XPM */
static char *player_left[] = {
/* columns rows colors chars-per-pixel */
"64 64 160 2 ",
"   c #2E1E22",
".  c #2F2226",
"X  c #39362F",
"o  c #3A3A2E",
"O  c #353531",
"+  c #343436",
"@  c #3E3F30",
"#  c #363638",
"$  c #38383A",
"%  c #3F383B",
"&  c #3C3C3A",
"*  c #3B3B3D",
"=  c #3C3C3E",
"-  c #453424",
";  c #50382D",
":  c #553831",
">  c #5D551E",
",  c #5D571E",
"<  c #595E1B",
"1  c #5E581E",
"2  c #636917",
"3  c #686F16",
"4  c #65631D",
"5  c #66681F",
"6  c #6C6C1B",
"7  c #686A1D",
"8  c #6B6E1D",
"9  c #6F721B",
"0  c #70731A",
"q  c #72751B",
"w  c #4A4B2A",
"e  c #494C29",
"r  c #4E4F2D",
"t  c #584A24",
"y  c #5D5F22",
"u  c #464830",
"i  c #434338",
"p  c #434439",
"a  c #45463D",
"s  c #484939",
"d  c #4D493C",
"f  c #5A4932",
"g  c #5D473C",
"h  c #694E3C",
"j  c #6A523A",
"k  c #75553A",
"l  c #616321",
"z  c #606222",
"x  c #676420",
"c  c #616426",
"v  c #6D6F23",
"b  c #6D6F27",
"n  c #666828",
"m  c #727422",
"M  c #747722",
"N  c #787B21",
"B  c #757828",
"V  c #6F7134",
"C  c #3E3E40",
"Z  c #424241",
"A  c #404042",
"S  c #474743",
"D  c #434345",
"F  c #444446",
"G  c #454547",
"H  c #4F4B41",
"J  c #4B4844",
"K  c #474749",
"L  c #4F4649",
"P  c #4A4A48",
"I  c #49494B",
"U  c #4C4848",
"Y  c #565044",
"T  c #5C5540",
"R  c #564C50",
"E  c #505052",
"W  c #525254",
"Q  c #535355",
"!  c #545154",
"~  c #545456",
"^  c #5B5256",
"/  c #5B5B5D",
"(  c #5C5C5F",
")  c #745C45",
"_  c #7D5D45",
"`  c #755648",
"'  c #6C6D57",
"]  c #77685B",
"[  c #5E5E60",
"{  c #606062",
"}  c #646466",
"|  c #696064",
" . c #676769",
".. c #69696B",
"X. c #6D6969",
"o. c #6C6C6E",
"O. c #726E6E",
"+. c #737067",
"@. c #797464",
"#. c #6E6E70",
"$. c #736E71",
"%. c #737375",
"&. c #777779",
"*. c #79797B",
"=. c #7A7A7C",
"-. c #7C7C7E",
";. c #946F3A",
":. c #8A773B",
">. c #A2783C",
",. c #875C47",
"<. c #8F6E4D",
"1. c #846955",
"2. c #836E5D",
"3. c #8A6E58",
"4. c #88715F",
"5. c #A37A5A",
"6. c #A77E5D",
"7. c #7F8124",
"8. c #C3A43F",
"9. c #84865A",
"0. c #A2814F",
"q. c #8A8B64",
"w. c #8E8F7D",
"e. c #8F9073",
"r. c #C6A740",
"t. c #C3A645",
"y. c #7E7E80",
"u. c #808082",
"i. c #828284",
"p. c #848486",
"a. c #878789",
"s. c #8A8A8C",
"d. c #8D8D8F",
"f. c #8F8F92",
"g. c #919193",
"h. c #949490",
"j. c #939395",
"k. c #959597",
"l. c #9D9D92",
"z. c #979799",
"x. c #9B9B9D",
"c. c #9D9D9F",
"v. c #9E9EA1",
"b. c #9CA8AD",
"n. c #A3A3A6",
"m. c #A5A5A7",
"M. c #A5A5A8",
"N. c #A8A8AB",
"B. c #AAAAAD",
"V. c #B3B0A9",
"C. c #AEAEB0",
"Z. c #B0B0B3",
"A. c #B1B1B4",
"S. c #B5B5B9",
"D. c #B7B7BB",
"F. c #BDBDBC",
"G. c #C3C3C5",
"H. c #C6C6C9",
"J. c #CECED2",
"K. c #D2D2D6",
/* pixels */
"q q q q q q q q q q q q q q q q q q q q q q q q q q q q q q q q q q q q q q q q q q q q q q q q q q q q q q q q q q q q q q q q ",
"q q q q q q q q q q q q q q q q q q q q q q q q q q q q q q q q q q q q q q q q q q q q q q q q q q q q q q q q q q q q q q q q ",
"q q q q q q q q q q q q q q q q q q q q q q q q q q q q q q q q q q q q q q q q q q q q q q q q q q q q q q q q q q q q q q q q ",
"q q q q q q q q q q q q q q q q q q q q q q q q q q q q q q q q q q q q q q q q q q q q q q q q q q q q q q q q q q q q q q q q ",
"q q q q q q q q q q q q q q q q q q q q q q q q q q q q q q q q q q q q q q q q q q q q q q q q q q q q q q q q q q q q q q q q ",
"q q q q q q q q q q q q q q q q q q q q q q q q q q q q q q q q q q q q q q q q q q q q q q q q q q q q q q q q q q q q q q q q ",
"q q q q q q q q q q q q q q q q q q q q q q q q q q q q q q q q q q q q q q q q q q q q q q q q q q q q q q q q q q q q q q q q ",
"q q q q q q q q q q q q q q q q q q q q q q q q q q q q q q q q q q q q q q q q q q q q q q q q q q q q q q q q q q q q q q q q ",
"q q q q q q q q q q q q q q q q q q q q q q q q q q q q q q q q q q q q q q q q q q q q q q q q q q q q q q q q q q q q q q q q ",
"q q q q q q q q q q q q q q q q q q q q q q q q q q q q q q q q q q q q q q q q q q q q q q q q q q q q q q q q q q q q q q q q ",
"q q q q q q q q q q q q q q 7.7.q q q q q q q q 7 7 z z $ $ = = = = * * $ $ 5 5 8 8 q q q q q q q q q q q q q q q q q q q q q q ",
"q q q q q q q q q q q q q q 7.7.q q q q q q q q 7 7 z z $ $ = = = = * * $ $ 5 5 8 8 q q q q q q q q q q q q q q q q q q q q q q ",
"q q q q q q q q q q q q N N N N q q q q 7.7.b b S S ~ ~ o.o.i.i.a.a.u.u.....W W s s 7 7 q q q q q q q q q q q q q q q q q q q q ",
"q q q q q q q q q q q q N N N N q q q q 7.7.b b S S ~ ~ o.o.i.i.a.a.u.u.....W W s s 7 7 q q q q q q q q q q q q q q q q q q q q ",
"q q q q q q N N q q q q N N 3 3 q q N N m m a a ....g.g.j.j.B.B.A.A.m.m.g.g.f.f.{ { i i q q q q q q q q q q q q q q q q q q q q ",
"q q q q q q N N q q q q N N 3 3 q q N N m m a a ....g.g.j.j.B.B.A.A.m.m.g.g.f.f.{ { i i q q q q q q q q q q q q q q q q q q q q ",
"q q q q q q q q 7.7.N N 3 3 q q q q v v = = ....g.g.z.z.N.N.D.D.D.D.D.D.n.n.z.z.f.f. .{ # # 9 9 q q q q q q q q q q q q q q q q ",
"q q q q q q q q 7.7.N N 3 3 q q q q v v = = ....g.g.z.z.N.N.D.D.D.D.D.D.n.n.z.z.f.f.}  .# # 9 9 q q q q q q q q q q q q q q q q ",
"q q q q q q q q N N N N r.r.r.r.N N @ @  . .p.p.z.z.x.x.D.D.D.D.D.D.D.D.D.D.z.z.z.z.i.y.[ { w w q q q q q q q q q q q q q q q q ",
"q q q q q q q q N N N N r.r.r.r.N N @ @  . .p.p.z.z.x.x.D.D.D.D.D.D.D.D.D.D.z.z.z.z.y.i.{ { w w q q q q q q q q q q q q q q q q ",
"q q q q q q q q q q r.r.>.>.>.>.:.:.P P *.*.j.j.z.z.z.z.M.M.D.D.D.D.D.D.m.m.z.z.z.z.j.f.%.%.F F z z q q q q q q q q q q q q q q ",
"q q q q q q q q q q r.r.>.>.>.>.:.:.P P *.*.j.j.z.z.z.z.M.M.D.D.D.D.D.D.m.M.z.z.z.z.f.j.%.%.F F z z q q q q q q q q q q q q q q ",
"q q q q q q q q q q 2 2 r.r.8.8.e e = = ~ ~ y.y.d.d.%.%.( ( C C = = *.*.z.j.z.z.z.z.z.z.%.%.K K y y q q q q q q q q q q q q q q ",
"q q q q q q q q q q 2 2 r.r.8.8.e e = = ~ ~ y.y.d.d.%.%.( ( C C = C *.*.j.z.z.z.z.z.z.z.%.%.K K y y q q q q q q q q q q q q q q ",
"q q q q q q q q q q q q 2 2 < < F F y.y.{ { &.&.y.y.u.u.f.f.m.m.u.u.~ ~ %.%.*.*.f.f.s.s.%.%.K K n n 7.7.q q q q q q q q N N N N ",
"q q q q q q q q q q q q 2 2 < < F F y.y.{ { &.&.y.y.u.u.f.f.m.m.u.u.~ ~ %.%.*.*.f.f.s.s.%.%.K K n n 7.7.q q q q q q q q N N N N ",
"7.7.N N q q q q q q q q q q 9 9 r r ~ ~ -.-.s.s.c.c.v.v.j.j.R R C.C.} } f.f.a.a. . .*.*.%.%.K K y y 7.7.N N N N q q 7.7.7.7.q q ",
"7.7.N N q q q q q q q q q q 9 9 r r ~ ~ -.-.s.s.c.c.v.v.j.j.R R C.C.} } f.g.a.a. . .*.*.%.%.K K y y 7.7.N N N N q q 7.7.7.7.q q ",
"7.7.N N N N q q q q q q q q 5 5 + + . .                     ! ! C.C.y.y.....W W #.#.[ [ W W K K n n 3 3 N N 3 3 N N N N 3 3 q q ",
"7.7.N N N N q q q q q q q q 5 5 + + . .                     ! ! C.C.y.y.....W W #.#.[ [ W W K K n n 3 3 N N 3 3 N N N N 3 3 q q ",
"3 3 N N N N q q q q q q q q 8 8 T T % % L L ^ ^ ^ ^ | | $.$.v.v.*.*.....I I + + W W I I ~ ~ P P c c N N 3 3 3 3 N N b.b.b.b.q q ",
"3 3 N N N N q q q q q q q q 8 8 T T % % L L ^ ^ ^ ^ | | $.$.v.v.*.*.....I I + + W W I P ~ ~ P P c c N N 3 3 3 3 N N b.b.b.b.q q ",
"q q 3 3 3 3 q q q q q q 0 0 t.t.;.;.d d F F X.X.-.y.M.M.j.j...#.] ] C C [ [ P P D C W ~ W ~ u u m m V.V.V.V.q q N N 0.0.b.b.q q ",
"q q 3 3 3 3 q q q q q q 0 q t.t.;.;.d d F F X.X.-.*.m.M.j.j.#...] ] C C [ [ P P C Z ~ W ~ W u u m m V.V.V.V.q q N N 0.0.b.b.q q ",
"q q q q q q q q q q M M M M t.t.8.r.2 2 8 6 ; ; ` ` 2.2.4.4.2.2.2.2.C C C C # # ~ W ~ W O O q q V.V.0.0.0.0.V.V.q q 2 2 2 2 q q ",
"q q q q q q q q q q M M M M t.t.r.r.2 2 6 6 ; ; ` ` 2.2.4.4.2.2.2.2.C C C C # # W ~ W W O O q q V.V.0.0.0.0.V.V.q q 2 2 2 2 q q ",
"q q q q q q q q B B w.w.B.B.C.C.A.A.q.q.9.9.2 2 - - : : g g g g g g % % [ [ {  .*.*... .Z Z l z 2 2 V.V.V.V.2 2 q q q q q q q q ",
"q q q q q q q q B B w.w.B.B.C.C.A.A.q.q.9.9.2 2 - - : : g g g g g g % % [ [ } } -.*... .Z Z l z 2 2 V.V.V.V.2 2 q q q q q q q q ",
"q q q q q q q q q q B B l.l.C.Z.K.K.H.H.F.F.' ' J J | | O.O. . .U U F F K K D D E E F K & & x x q q 2 2 2 2 q q q q q q q q q q ",
"q q q q q q q q q q B B l.l.C.B.K.K.H.H.F.F.' ' J J | | O.O. . .U U F F K K D D E E F F & & x x q q 2 2 2 2 q q q q q q q q q q ",
"q q q q q q q q q q q q q q 7.7.h.h.G.G.J.J.d.d.I I *.*.M.M.S.S.%.%.*.*.A.A.j.j.U U y y q q q q q q q q q q q q q q q q q q q q ",
"q q q q q q q q q q q q q q 7.7.h.h.G.G.J.J.d.d.I I *.*.M.M.S.S.%.%.-.*.C.A.j.j.U U y y q q q q q q q q q q q q q q q q q q q q ",
"q q q q q q q q q q q q q q q q q 0 9.9.e.e.u.u.* C }  .i.i.&.&.[ [ [ [ [ [ p.p.s s x x q q q q q q q q q q q q q q q q q q q q ",
"q q q q q q q q q q q q q q q q 0 0 9.9.e.e.u.u.* C } { i.i.&.&.[ [ [ [ [ [ p.p.s s x x q q q q q q q q q q q q q q q q q q q q ",
"q q q q q q q q q q q q q q q q q q q q q q V V i i U K H H ) ) 1.1.v.v.#...J J x x q q q q q q q q q q q q q q q q q q q q q q ",
"q q q q q q q q q q q q q q q q q q q q q q V V i i K K H H ) ) 1.1.v.v.o.#.J J x x q q q q q q q q q q q q q q q q q q q q q q ",
"q q q q q q q q q q q q q q q q q q 7.7.:.:.3 3 u u *.*.@.@.<.<.5.5.] ] / / O O 9 9 q q q q q q q q q q q q q q q q q q q q q q ",
"q q q q q q q q q q q q q q q q q q 7.7.:.:.3 3 u u =.*.@.@.<.<.5.5.] ] / / O O 9 9 q q q q q q q q q q q q q q q q q q q q q q ",
"q q q q q q q q q q q q q q q q q q N 7.N N 8 0 @ @ #.#.+.+.f f k k f f p p o o q q q q q q q q q q q q q q q q q q q q q q q q ",
"q q q q q q q q q q q q q q q q q q 7.7.N N q q @ @ #.#.+.+.f f k k f f p p o o q q q q q q q q q q q q q q q q q q q q q q q q ",
"q q q q q q q q q q q q q q q q q q 3 3 N N x 4 h h C C F D X X Y Y _ _ 3.3.j j 4 4 q q q q q q q q q q q q q q q q q q q q q q ",
"q q q q q q q q q q q q q q q q q q 3 3 N N 4 4 h h C C F F X X Y Y _ _ 3.3.j j 4 4 q q q q q q q q q q q q q q q q q q q q q q ",
"q q q q q q q q q q q q q q q q q q q q q q q q t t t t , 1 q q t t 6.6.6.6.,.,.1 1 q q q q q q q q q q q q q q q q q q q q q q ",
"q q q q q q q q q q q q q q q q q q q q q q q q t t t t 1 1 q q t t 6.6.6.6.,.,.1 1 q q q q q q q q q q q q q q q q q q q q q q ",
"q q q q q q q q q q q q q q q q q q q q q q q q q q q q q q q q 9 9 , , , , , , q q q q q q q q q q q q q q q q q q q q q q q q ",
"q q q q q q q q q q q q q q q q q q q q q q q q q q q q q q q q 9 9 > > , , , , q q q q q q q q q q q q q q q q q q q q q q q q ",
"q q q q q q q q q q q q q q q q q q q q q q q q q q q q q q q q q q q q q q q q q q q q q q q q q q q q q q q q q q q q q q q q ",
"q q q q q q q q q q q q q q q q q q q q q q q q q q q q q q q q q q q q q q q q q q q q q q q q q q q q q q q q q q q q q q q q ",
"q q q q q q q q q q q q q q q q q q q q q q q q q q q q q q q q q q q q q q q q q q q q q q q q q q q q q q q q q q q q q q q q ",
"q q q q q q q q q q q q q q q q q q q q q q q q q q q q q q q q q q q q q q q q q q q q q q q q q q q q q q q q q q q q q q q q ",
"q q q q q q q q q q q q q q q q q q q q q q q q q q q q q q q q q q q q q q q q q q q q q q q q q q q q q q q q q q q q q q q q ",
"q q q q q q q q q q q q q q q q q q q q q q q q q q q q q q q q q q q q q q q q q q q q q q q q q q q q q q q q q q q q q q q q ",
"q q q q q q q q q q q q q q q q q q q q q q q q q q q q q q q q q q q q q q q q q q q q q q q q q q q q q q q q q q q q q q q q ",
"q q q q q q q q q q q q q q q q q q q q q q q q q q q q q q q q q q q q q q q q q q q q q q q q q q q q q q q q q q q q q q q q "
};
