/* XPM */
static char *item_3[] = {
/* columns rows colors chars-per-pixel */
"64 64 214 2 ",
"   c #231E1B",
".  c #2A261A",
"X  c #312E1B",
"o  c #3C391B",
"O  c #35321A",
"+  c #2E2926",
"@  c #34262C",
"#  c #3B3527",
"$  c #363335",
"%  c #413D1B",
"&  c #42351D",
"*  c #443D2B",
"=  c #543A24",
"-  c #6D3434",
";  c #45431B",
":  c #49451B",
">  c #4C4B1B",
",  c #514D1C",
"<  c #53521B",
"1  c #5C5D1A",
"2  c #595919",
"3  c #625F1C",
"4  c #5E6119",
"5  c #656A17",
"6  c #686F16",
"7  c #64651B",
"8  c #656919",
"9  c #6A6D1B",
"0  c #65661A",
"q  c #6A7017",
"w  c #6E721A",
"e  c #72751B",
"r  c #76791E",
"t  c #797A1E",
"y  c #78771E",
"u  c #4C4A29",
"i  c #494525",
"p  c #574B2A",
"a  c #5A5726",
"s  c #494435",
"d  c #574936",
"f  c #555334",
"g  c #645928",
"h  c #775428",
"j  c #644C37",
"k  c #6E5131",
"l  c #6C6C22",
"z  c #666529",
"x  c #746C22",
"c  c #77672C",
"v  c #6F7223",
"b  c #747422",
"n  c #7A7622",
"m  c #777A20",
"M  c #7A7D21",
"N  c #72742B",
"B  c #7B7829",
"V  c #6B6739",
"C  c #7A6433",
"Z  c #797C34",
"A  c #583D4A",
"S  c #603E4E",
"D  c #484549",
"F  c #534B4A",
"G  c #585349",
"H  c #5B5856",
"J  c #4F4A52",
"K  c #665249",
"L  c #7A5344",
"P  c #644655",
"I  c #714B56",
"U  c #695854",
"Y  c #6E4F42",
"T  c #746747",
"R  c #726759",
"E  c #7C7B58",
"W  c #6E694D",
"Q  c #6D5864",
"!  c #6A6766",
"~  c #746E69",
"^  c #757374",
"/  c #7D7A7A",
"(  c #757468",
")  c #9D2D3A",
"_  c #8A3037",
"`  c #A52F3C",
"'  c #AA303D",
"]  c #A3333D",
"[  c #B3333E",
"{  c #B43E3C",
"}  c #CA3B3F",
"|  c #D43E3F",
" . c #867E1F",
".. c #8E5728",
"X. c #875726",
"o. c #945729",
"O. c #B94737",
"+. c #876626",
"@. c #837D22",
"#. c #89792A",
"$. c #937A35",
"%. c #8D7333",
"&. c #A5653A",
"*. c #A27C3A",
"=. c #CC443D",
"-. c #D8423F",
";. c #D9493E",
":. c #E2493F",
">. c #E1473F",
",. c #E85C3E",
"<. c #E4563E",
"1. c #EA693D",
"2. c #EE793E",
"3. c #9A3745",
"4. c #A03845",
"5. c #A83F42",
"6. c #D43D40",
"7. c #DC3F40",
"8. c #844658",
"9. c #8F564B",
"0. c #A94743",
"q. c #B84542",
"w. c #B05E5A",
"e. c #876748",
"r. c #937455",
"t. c #A76550",
"y. c #B47150",
"u. c #AD6C53",
"i. c #8E5763",
"p. c #AB7061",
"a. c #B87569",
"s. c #C84741",
"d. c #DF4141",
"f. c #D74340",
"g. c #E14341",
"h. c #E24A40",
"j. c #E45A42",
"k. c #D17B4C",
"l. c #C77850",
"z. c #EC6E40",
"x. c #7F8124",
"c. c #858125",
"v. c #888227",
"b. c #98892D",
"n. c #858539",
"m. c #9A8A34",
"M. c #9D9033",
"N. c #AE8B3C",
"B. c #A78838",
"V. c #AA9535",
"C. c #B49A35",
"Z. c #BC9B3E",
"A. c #B3973A",
"S. c #AB8D34",
"D. c #BEA03E",
"F. c #C29C3D",
"G. c #C1A43E",
"H. c #868444",
"J. c #958347",
"K. c #9B8454",
"L. c #A48745",
"P. c #A58656",
"I. c #B98255",
"U. c #B99C57",
"Y. c #B2974E",
"T. c #BBA059",
"R. c #BBA141",
"E. c #8D8F67",
"W. c #968666",
"Q. c #979572",
"!. c #848574",
"~. c #A78966",
"^. c #AD9A75",
"/. c #BEA561",
"(. c #DC9E5F",
"). c #C48D53",
"_. c #F69D51",
"`. c #F08946",
"'. c #C4A54A",
"]. c #C6A556",
"[. c #D2B058",
"{. c #D0AA66",
"}. c #E29B5E",
"|. c #DEC56A",
" X c #E8CA74",
".X c #EDC870",
"XX c #7C7980",
"oX c #817F84",
"OX c #94948B",
"+X c #A59E81",
"@X c #B19695",
"#X c #97A198",
"$X c #A8A289",
"%X c #A9A591",
"&X c #B1A99F",
"*X c #BAAE90",
"=X c #9BA5A6",
"-X c #B2AEA6",
";X c #AEAFAB",
":X c #E5BD83",
">X c #C1AEB1",
",X c #D9C285",
"<X c #F1D994",
"1X c #EACD89",
"2X c #F8E39B",
"3X c #CFC9B8",
"4X c #F0DEA2",
"5X c #DBD9D8",
"6X c #D3D3CE",
"7X c #E0DEDE",
"8X c #E6E4DC",
"9X c #EDEDEC",
"0X c #E3E4E0",
"qX c #F7F7F7",
/* pixels */
"e e e e e e e e e e e e e e e e e e e e e e e e e e e e e e e e e e e e e e e e e e e e e e e e e e e e e e e e e e e e e e e e ",
"e e e e e e e e e e e e e e e e e e e e e e e e e e e e e e e e e e e e e e e e e e e e e e e e e e e e e e e e e e e e e e e e ",
"e e e e e e e e e e e e e e e e e e e e e e e e e e e e e e e e e e e e e e e e e e e e e e e e e e e e e e e e e e e e e e e e ",
"e e e e e e e e e e e e e e e e e e e e e e e e e e e e e e e e e e e e e e e e e e e e e e e e e e e e e e e e e e w e e e e e ",
"e e e e e e e e e e e e e e e e e e e e e e e e e e e e e e e e e e e e e e e e e e e e e e e e e e e e e e e e e e e e e w e e ",
"e e e e e e e e e e e e e e e e e e e e e e e e e e e e e e e e e e e e e e e e e e e e e e e e e e e e e e e e e e e e e w e e ",
"e e e e e e e e e e e e e e e e e e e e e e e e e e e e e e e e e e e e e e e e e e e e e e e e e e e e e e e e e e e e e e e e ",
"e e e e e e e e e e e e e e e e e e e e e e e e e e e e e e e e e e e e e e e e e e e e e e e e e e e e e e e e e e e e e e e e ",
"e e e e e e e e e e e e e e e e e e e e e e e e e e e e e e e e e e e e e e e e e e e e e e e e e e e e e e e e e e e e e e e e ",
"e e e e e e e e e e e e e e r e e e e e e e e e e e e e e e e e e e e e e e e e e e e e e e e e e e e e e e e e e e e e e e e e ",
"e e e e e e e e e e e e w r M t r e e e e e e e e e e e e e e e e e e e e e e e e e e e e e e e e e e e e e e e e e e e e e e e ",
"e e e e e e e e e e e e e r M x.r e e e r e r r e e e e e e e e e e e e e e e e e e e e e e e e e e e e e e e e e e e e e e e e ",
"e e e e e e e e e e e e r r M M e e e e M M x.M t e e e e e e e e e e e e e e e e e e e e e e e e e e e e e e e e e e e e e e e ",
"e e e e e e r r e e e e r M r r r r r r M x.x.M t y e e e e e e e e e e e e e e e e e e e e e e e e e e e e e e e e e e e e e e ",
"e e e e e e r r r e w r r r w w e e r m x.M c.M e e e e e e e e e e e e e e e e e e e e e e e e e e e e e e e e e e e e e e e e ",
"e e e e e e r r r e r r r e w w w e r M M M M M e e 8 8 4 4 4 4 4 4 e e e e e e e e e e e e e e e e e e e e e e e e e e e e e e ",
"e e e e e e e r M M M r w w w e e e r M m m e e w l > ; o o % o o o w e e e e e e e e e e e e e e e e e e e e e e e e e e e e e ",
"e e e e e e e r M x.M t t  . .@.t r m M e e w 9 Z N u i = = & = X # z z l 9 e e e e e e e e e e e e e e e e e e e e e e e e e e ",
"e e e e e e e e r M M c.M.C.C.M.c.M M r w q 8 z E ( V c &.t.&.&.j p F f a 2 w e e e e e e e e e e e e e e e e e e e e e e e e e ",
"e e e e e e e e b M v.b.A.Z.Z.C.b.c.M e t b l N R ~ W e.y.l.k.k.h k A D > < 9 e e e e e e e e e e e e e e e e e e e e e w e e e ",
"e e e e e e e e e @.V.A.N.N.N.L.C.M.c.t b.b.M l s D U R a.a.y.u.j d J D ; > 8 e e e e e e e e e e e e e e e e e e e e e e e e e ",
"e e e e e e e e e M M.A.N.*.N.B.S.S.c.v.A.R.M.Z i $ H ! p.p.t.r.G F D A # : 8 e e e e e e e e e e e e e e e e e e e e e e e e e ",
"e e e e e e e e e e y v.N.F.D.V. . .v.C.|.|.'.S.z a ! ! 9.e.9.9.! Q $ $ o > q e e e e e e e e e e e e e e e e e e e e e e e e e ",
"e e e e e e e e e e 8 e S.C.C.M.y w v.C.|..X'.S.l z ~ ~ I I 9.k XX^ + + ; > 9 e e e e e e e e e e t e e e e e e e e e e e e t e ",
"e e e e e e e e e e w e b m b e e e y b.'.'.$.c 4 z OXOXd j k h XX^ X . < 4 9 v e e e e e e e r x.x.x.r r w r w e e e r r r x.e ",
"r r e e e e e e e e e w 6 6 5 6 e e t $.Y.I.C g < V OX#XR R h h ^ ^ $ X 4 4 e w e e e e e e e r r x.x.x.r r e w e e e e x.r x.r ",
"x.x.x.r e e e e e e e e e w w w e @.S.S.B.%.g u J ! 6X0X7X6Xp ; u u J D l q e e e e r w e e w w w e x.x.x.r x.r r e x.c.x.x.e q ",
"x.x.r r e e e e e e e e e e e e e @.B.S.L.$.g s H XX7X9XqX9Xu % % ; J H N N e e e e w r e e r e w e r x.x.r r x.e e t c.x.x.r e ",
"x.x.r r M r e e e e e e e e e e e e w #.N.L.R ^ 6X9XqXqXqX9Xu % w 9 a f P.Y.N 9 w r w w w r x.x.x.x.q q r r q q e x.m m q w w e ",
"x.x.x.M M m e e e e e e e e e r r e w M L.L.R / 7XqXqX9X9X0Xu % e w < z /.U.N l w w r r m x.x.x.x.x.q q v x.q q m N x.x.w w e e ",
"6 6 r r M r e e e e e e e e e c.V.D.Z.Y.Q.!.E E.6X0X*X^.D i % % e m n.M.[.{.W.E a 4 w e e x.x.x.m r x.x.q 6 6 6 e x.#X=X=X#Xm e ",
"6 6 x.r M m e e e e e e e e e c.V.G.G.Y.Q.!.E E.5X7X*X~.i O ; % e e m.V.[.{.W.R z 4 6 e w e x.x.x.x.m r 6 6 6 6 x.H.#X=X=X=Xm e ",
"e e 6 6 6 q w e e e e e q  .C.Z.*.e.R ~ T V i < v.D..X.X`.2.:.:.j.,...X...h : s G H a 4 w w 6 6 x.H.OX;X-X$Xn.e x.c.J.K.=X=XB e ",
"e e 6 6 6 q e e e e e e e  .V.Z.*.e.( ( E z u a b.G..X.X`.2.h.g.<.<.o.....X.= i J G a 4 6 x.w v x.E #X;X-X%XH.B x.v.H.K.#X#Xb e ",
"e e e e e e e e e e e e q @.C.Z.$.P.3X>XH = O.;.:.,._._.1.,.g.g.6.6.| -.f.s.x n E W * o 4 e e H.^.$XP.r.K.P.%X$Xx.v 4 l l l e e ",
"e e e e e e e e e e e e e @.V.A.v.K.3X;XI h =.:.:.<._._.j.,.g.g.6.6.7.7.g.f.+.+.r.R * o 4 w e x.Q.$X~.y.K.~.$X#XZ l 4 8 4 5 e e ",
"e e e e e e e e e e e e e e e 0 a W %X-Xw.O.=.>.g.h.1.z.h.g.g.g.d.7.6.6.g.6.=.q.i.Q @ X 2 6 e e m H.$X&X&X+Xx.N m q e w e x.q e ",
"e e e e e e e e e e e e e w 9 1 < T OX@Xw.} -.;.g.:.1.1.:.>.g.g.g.7.6.6.6.6.5.q.i.P @ O 1 9 e w v x.Q.%X%XQ.m 6 q e e e e e e e ",
"e e e e e e e e e e e e e e e w w 3 * K I.).0.' } >.-.h.g.g.g.g.g.6.6.6.[ [ ) _ P A # % 4 9 e e v e N N N N w e e e e e e e e e ",
"e e e e e e e e e e e e e e e e m l f L ).}.t.O.| | } | | | 6.6.6.6.=.} ' ' 0.9.K d * ; 4 e e e v w 6 6 6 9 w v e e e e e e e e ",
"e e e e e e e e e e e e e e e y M m./.,X<X<X(.k.6.4.[ [ [ [ [ [ [ [ [ ' 3.4.{.{.r.C u , 0 e e e e e e e w w e e e e e e e e e e ",
"e e e e e e e e e e e e e e e y @.M.{.1X2X<X(.).0.' ' ' ' ' ' ' ' ` ) ) 0.t.:X:XU.r.g 4 w e e e e e e e e e e e e e e e e e e e ",
"e e e e e e e e e e e e e e e e r #.m.U. X XP.9.] ' 4.4.' ' ' ' ` ` _ - y.{.<X2X.X[.S.@.y e e e e e e e e e e e e e e e e e e e ",
"e e e e e e e e e e e e e e e e e M B m.U.].e.Y 3.4.4.4.4.3.3.3.4.4.- - P.^.1X<X|.].b.y y x e e e e e e e e e e e e e e e e e e ",
"e e e e e e e e e e e e e e e e e e l b $.%.= * K I 8.8.i.8.I 3.3.I I P s k U.].y.%.g 2 9 x e e e e e e e e e e e e e e e e e e ",
"e e e e e e e e e e e e e e e e e e 9 x x 3 i # F J P P S S A A S S J J + & $.B.h 2 , < 0 e e e e e e e e e e e e e e e e e e e ",
"e e e e e e e e e e e e e e e e e e m b l 4 < > i * @ @ @ @ @ + @ @ @ @ X & e x u > 1 8 e e e e e e e e e e e e e e e e e e e e ",
"e e e e e e e e e e e e e e e e e M x.M b 9 5 4 , : + @             @ o % : 0 0 > < 8 e e e e e e e e e e e e e e e e e e e e e ",
"e e e e e e e e e e e e e e e e e r t x.r m b 9 0 1 < : X X X X X X > > 1 4 9 w 0 5 q e e e e e e e e e e e e e e e e e e e e e ",
"e e e e e e e e e e e e e e e e e r r t r M M r q 6 5 4 > ; ; > : : 2 1 q q e e w w e e e e e e e e e e e e e e e e e e e e e e ",
"e e e e e e e e e e e e e e e e e w e e r t t m e w 6 6 0 0 0 8 5 0 6 6 q q w e e e w e e e e e e e e e e e e e e e e e e e e e ",
"e e e e e e e e e e e e e e e e e e q q e t r r r e w e e e e e e e e e e e e e e e e e e e e e e e e e e e e e e e e e e e e e ",
"e e e e e e e e e e e e e e e e e e q e e e r e e e e e e e e e e e e e e e e e e e e e e e e e e e e e e e e e e e e e e e e e ",
"e e e e e e e e e e e e e e e e e e e e e e e e e e e e e e e e e e e e e e e e e e e e e e e e e e e e e e e e e e e e e e e e ",
"e e e e e e e e e e e e e e e e e e e e e e e e e e e e e e e e e e e e e e e e e e e e e e e e e e e e e e e e e e e e e e e e ",
"e e e e e e e e e e e e e e e e e e e e e e e e e e e e e e e e e e e e e e e e e e e e e e e e e e e e e e e e e e e e e e e e ",
"e e e e e e e e e e e e e e e e e e e e e e e e e e e e e e e e e e e e e e e e e e e e e e e e e e e e e e e e e e e e e e e e ",
"e e e e e e e e e e e e e e e e e e e e e e e e e e e e e e e e e e e e e e e e e e e e e e e e e e e e e e e e e e e e e e e e ",
"e e e e e e e e e e e e e e e e e e e e e e e e e e e e e e e e e e e e e e e e e e e e e e e e e e e e e e e e e e e e e e e e ",
"e e e e e e e e e e e e e e e e e e e e e e e e e e e e e e e e e e e e e e e e e e e e e e e e e e e e e e e e e e e e e e e e ",
"e e e e e e e e e e e e e e e e e e e e e e e e e e e e e e e e e e e e e e e e e e e e e e e e e e e e e e e e e e e e e e e e ",
"e e e e e e e e e e e e e e e e e e e e e e e e e e e e e e e e e e e e e e e e e e e e e e e e e e e e e e e e e e e e e e e e ",
"e e e e e e e e e e e e e e e e e e e e e e e e e e e e e e e e e e e e e e e e e e e e e e e e e e e e e e e e e e e e e e e e ",
"e e e e e e e e e e e e e e e e e e e e e e e e e e e e e e e e e e e e e e e e e e e e e e e e e e e e e e e e e e e e e e e e "
};
