/* XPM */
static char *item_2[] = {
/* columns rows colors chars-per-pixel */
"64 64 209 2 ",
"   c #2D291C",
".  c #2A261B",
"X  c #322E1C",
"o  c #35331C",
"O  c #3A361C",
"+  c #3C3A1B",
"@  c #2E2A22",
"#  c #2D2A2D",
"$  c #332E24",
"%  c #362827",
"&  c #363125",
"*  c #393C24",
"=  c #3F2A36",
"-  c #332E34",
";  c #343033",
":  c #3E3937",
">  c #2F3620",
",  c #403F1C",
"<  c #483A1E",
"1  c #541B2B",
"2  c #701B2B",
"3  c #463A20",
"4  c #443726",
"5  c #44383A",
"6  c #523034",
"7  c #682D32",
"8  c #3B4622",
"9  c #3C5228",
"0  c #44421B",
"q  c #4A461C",
"w  c #4B4A1C",
"e  c #464B1F",
"r  c #5B4A1F",
"t  c #4B521F",
"y  c #53541C",
"u  c #5C5C1B",
"i  c #55591C",
"p  c #605F1C",
"a  c #5B611D",
"s  c #676D17",
"d  c #686F16",
"f  c #63641B",
"g  c #66691B",
"h  c #6A6E1A",
"j  c #6A7017",
"k  c #6E721A",
"l  c #72751B",
"z  c #76791E",
"x  c #79791F",
"c  c #72651E",
"v  c #4B462B",
"b  c #484924",
"n  c #435726",
"m  c #5A5927",
"M  c #484634",
"N  c #5C5636",
"B  c #52443D",
"V  c #734B2B",
"C  c #48682D",
"Z  c #5F6338",
"A  c #556C2A",
"S  c #646522",
"D  c #6D6E22",
"F  c #61622C",
"G  c #676B27",
"H  c #756F27",
"J  c #6C7624",
"K  c #737423",
"L  c #777A21",
"P  c #7A7C21",
"I  c #70732B",
"U  c #7B7626",
"Y  c #67643A",
"T  c #777735",
"R  c #766D39",
"E  c #3E3C42",
"W  c #483C46",
"Q  c #77394A",
"!  c #623242",
"~  c #554A4B",
"^  c #5B584B",
"/  c #5D5A57",
"(  c #6A5947",
")  c #624852",
"_  c #695852",
"`  c #784F57",
"'  c #7A7948",
"]  c #68685A",
"[  c #73655E",
"{  c #78744A",
"}  c #5B5B62",
"|  c #685C65",
" . c #6A6766",
".. c #7B796E",
"X. c #746E79",
"o. c #757378",
"O. c #7C656D",
"+. c #9A2B39",
"@. c #83243A",
"#. c #AC313E",
"$. c #A7303C",
"%. c #B2333D",
"&. c #BE363E",
"*. c #BC3C3F",
"=. c #A52F3C",
"-. c #C5393F",
";. c #CA3A3F",
":. c #D23F3F",
">. c #864B2A",
",. c #86462B",
"<. c #9F5F2A",
"1. c #86522D",
"2. c #A35D2C",
"3. c #827E23",
"4. c #8A7F29",
"5. c #946D32",
"6. c #C9453B",
"7. c #D8443E",
"8. c #D3413E",
"9. c #8C3445",
"0. c #933A4A",
"q. c #A53B48",
"w. c #B13640",
"e. c #D53E40",
"r. c #DC3F41",
"t. c #97404E",
"y. c #994553",
"u. c #835252",
"i. c #A9424E",
"p. c #B8454D",
"a. c #947749",
"s. c #926551",
"d. c #936C49",
"f. c #A86446",
"g. c #BC615A",
"h. c #946B77",
"j. c #8E6E6F",
"k. c #AA696D",
"l. c #DD4141",
"z. c #D54040",
"x. c #CA4642",
"c. c #E14241",
"v. c #C27960",
"b. c #568434",
"n. c #5D9639",
"m. c #7F8124",
"M. c #7F813B",
"N. c #629636",
"B. c #68A93E",
"V. c #7F8046",
"C. c #6EB842",
"Z. c #72BC42",
"A. c #77C946",
"S. c #7CD248",
"D. c #858125",
"F. c #878229",
"G. c #81833D",
"H. c #9E8735",
"J. c #9A8D2E",
"K. c #AD8C3C",
"L. c #A7873A",
"P. c #A29131",
"I. c #AF9339",
"U. c #AC9835",
"Y. c #BA9C3D",
"T. c #B29A38",
"R. c #B08E3D",
"E. c #BCA13C",
"W. c #C2A43E",
"Q. c #838540",
"!. c #988049",
"~. c #998657",
"^. c #B99540",
"/. c #A28557",
"(. c #AA9756",
"). c #958F72",
"_. c #9A9774",
"`. c #8A8A6F",
"'. c #A48F68",
"]. c #A69069",
"[. c #A98078",
"{. c #AEA36D",
"}. c #C5A640",
"|. c #C88567",
" X c #777884",
".X c #937686",
"XX c #898788",
"oX c #99988B",
"OX c #979B99",
"+X c #A19C82",
"@X c #A89C88",
"#X c #B29895",
"$X c #99A29C",
"%X c #AAA28D",
"&X c #A7A487",
"*X c #ACA796",
"=X c #B5A79A",
"-X c #B5AF89",
";X c #9AA6A7",
":X c #B3ADA2",
">X c #B9B7A9",
",X c #ACB1AE",
"<X c #C29C92",
"1X c #BDC1C3",
"2X c #DBDCD6",
"3X c #E5E5DF",
"4X c #E8E7E6",
"5X c #F7F7F8",
"6X c #F0EFEE",
/* pixels */
"l l l l l l l l l l l l l l l l l l l l l l l l l l l l l l l l l l l l l l l l l l l l l l l l l l l l l l l l l l l l l l l l ",
"l l l l l l l l l l l l l l l l l l l l l k l l l l l l l l l l l l l l l l l l l l l l l l l l l l l l l l l l l l l l l l l l ",
"l l l l l l l l l l l l l l l l l l l l l l l l l l l l l l l l l l l l l l l l l l l l l l l l l l l l l l l l l l l l l l l l ",
"l l l l l l l l l l l l l l l l l l l l l l l l l l l l l l l l l l l l l l l l l l l l l l l l l l l l l l l l l l l l l l l l ",
"l l l l l l l l l l l l l l l l l l l l l l l l l l l l l l l l l l l l l l l l l l l l l l l l l l l l l l l l l l l l l l l l ",
"l l l l l l l l l l l l l l l l l l l l l l l l l l l l l l l l l l l l l l l l l l l l l l l l l l l l l l l l l l l l l l l l ",
"l l l l l l l l l l l l l l l l l l l l l l l l l l l l l l l k l l l l l l l l l l l l l l l l l l l l l l l l l l l l l l l l ",
"l l l l l l l l l l l l l l l l l l l l l l l l l l l l l l l l l l l l l l l l l l l l l l l l l l l l l l l l l l l l l l l l ",
"l l l l l l l l l l l l l l l l l l l l l l l l l l l l l l l l l l l l l l l l l l l l l l l l l l l l l l l l l l l l l l l l ",
"l l l l l l l l l l l l l z z z z l l l l l l l l l l l l l l l l l l l l l l l l l l l l l l l l l l l l l l l l l l l l l l l ",
"l l l l l l l l l l l l k z x x z l l l l l l l l l l l l l l l l l l l l l l l l l l l l l l l l l l l l l l l l l l l l l l l ",
"l l l l l l l l l l l l z z x m.z l l l z l z z l l l l l l l l l l l l l l l l l l l l l l l l l l l l l l l l l l l l l l l l ",
"l l l l l l l l l l k z z z m.z z l l l P P P P z l l l l l l l l l l l l l l l l l l l l l l l l l l l l l l l l l l l l l l l ",
"l l l l l l z l l l l z z z z z z l l z P m.D.m.z l l l l l l l l l l l l l l l l l l l l l l l l l l l l l l l l l l l l l l l ",
"l l l l l l z z l l k z z z k k l l l z P D.3.P l l l l l l k z l l l l l l l l l l l l l l l l l l l l l l l l l l l l l l l l ",
"l l l l l l z z z z z z z z k k k l z z P P P x l h f f f f f f f f d k l l l l l l l l l l l l l l l l l l l l l l l l l l l l ",
"l l l l l l z z x P x z k j k l l l z P P L l j G p b q 3 3 q < , < f f l l l l l l l l l l l l l l l l l l l l l l l l l l l l ",
"l l l l l l l z D.P P P x D.D.D.x z z P z l h J Q.Q.N b r 6 7 7 % % F F g G k l l l l l l l l l l l l l l l l l l l l l l l l l ",
"l l l l l l l l z x x D.P.U.U.P.D.z x z k j g T >X>X{ { f.f.f.f.% & ] ] n i k l l l l l l l l l l l l l l l l l l l l l l l l l ",
"l l l l l l l l z 3.D.J.T.Y.Y.I.J.D.P l k j s ' >X,X).~.|.|.v.v.M M } } b q g k J J G g k l l l l l l l l l l l l l l l l l l l ",
"l l l l l l l l l 3.P.T.K.K.^.K.I.P.P k l z l G ^ / oX*X<X<X[.k. .| E E + , a g N.b.n t g k l l l l l l l l l l l l l l l l l l ",
"l l l l l l l l k 3.P.I.K.L.a.L.I.P.x k z L z g + 5 OX*X@X#X).j.o.X.- # o + i A B.n.9 n a g j l l l l l l l l l l l l l l l l l ",
"l l l l l l l l l l l 4.R.Y.Y.I.F.x d k z z j d f F  X Xs.s.d.f. Xo.@ .   X n b.A.C.b.C 9 n f l l l l l l l l l l l l l l l l l ",
"l l l l l l l l l k c x P.Y.T.P.x s h l 3.3.U z l I ..o.u.u.1.1. X X@ .   > C b.A.S.B.b.9 8 a h l x l l l l l l l l l l z l l l ",
"l l l l l l l l l l l l z z z k l k l 3.I.I.K.H.J G XXXX( N 3 3  X Xo   + n N.Z.S.S.C.n.C n t u k m.m.m.m.l l l l l l l D.m.j l ",
"z l z l l l l l l l l k j d s s l l x 4.R.^.R.K.T ' ;X,Xo.] , O o.o.5 = 0 n b.B.S.A.C.n.C 9 e i k m.m.m.z k l l l l j l m.m.l l ",
"m.z x z l l l l l l l l k k k k k 3.L.K.K.5.5.a.oX;X4X6X4X2XD f I T  . .b q 8 C C.C.C 9 8 o , y g x m.m.m.m.l l l z D.m.m.m.l l ",
"D.m.m.z z l l l l l l l l k z l l 3.P.K.!.5.d.~.*X2X6X5X6X3Xz h l J  . .b b   0 n.C.C * o O 0 i h l l m.m.z l l l z m.m.m.m.l l ",
"m.m.z m.z z l l l l l l l l l l l k h K 5.a.&X>X4X6X5X6XoXj.q 0 l l S F _ ~ #   o o   o 0 t S K P P k j l l l z m.m.k P j j z l ",
"m.m.m.z z z l l l l l l l l z z x l h k T a.%X>X4X5X5X3Xj.] w 0 l l f u _ ~ &   .   . > 0 y S L P L k j k z l z m.P L J z D.z l ",
"d d z z m.L l l l l l l l l l D.I.T.5.!.).`.^ Y *X-Xs.Y V >.>.>.<.<.l l a F / ~ $   0 y u s z m.L m.m.P j j k k l T oX;X;X$Xz k ",
"d d z m.z z z l l l l l l l k D.T.Y.L.!.).`.m Z {.-XV V >.>.>.>.2.2.l k g S / ~ $   0 y u h z m.m.P L L k j k z z T $X;X;X;Xz z ",
"l l d d d d l l l l l l l D.T.Y.H.~.=XoXY 0 r ,.:.c.r.c.c.c.c.c.c.c.c.7.<.D h T XXXXY a d j d d k G.&X:X>X&XM.l z F.!./.;X;Xz l ",
"l k k d d d l l l l l l l D.U.Y.L.(.#XOXY r V ,.;.c.c.c.c.c.c.c.c.c.c.:.<.5.S R XX.XY f h l j k l G.&X:X:X&XM.L L U d.~.;X$Xl l ",
"l l l l l l l l l l l l l D.T.W.W.{.:X#Xg.2.z.l.c.c.c.c.c.c.c.c.c.c.r.r.l.:.-.p.XX X5 + f k l G.&X%X'.!./.].*X%XG.l k j k S l l ",
"l l l l l l l l l l l l l D.U.E.W.(.#X#Xg.e.r.r.c.c.c.c.c.c.c.c.c.c.c.c.r.e.e.p.h.o.5 + f l l G._.%X]././.].%X_.m.k s s f d l l ",
"l l l l l l l l l l l l l l k l x H N _ j.g.w.e.:.c.c.c.r.r.c.c.c.c.c.r.&.w.0.Q W W % , f l k k K ' +X=X:XoX{ K J l k k l l l l ",
"l l l l l l l l l l l l l l d g D S m ( s.k.i.w.:.7.7.7.;.e.c.:.c.r.:.:.&.$.0.Q 5 - X 0 f l l l h T _.%X@X_.I s h l l l l l l l ",
"l l l l l l l l l l l l l l k k h c m N [ k.i.#.%.%.-.-.e.&.e.e.;.;.%.%.=.+.` ) % @ + y c l l l l k I I I I J l l l l l l l l l ",
"l l l l l l l l l l l l l l l l k h p N _ ` y.q.#.#.&.-.#.e.&.w.-.;.$.=.9.9.) W @   q i h l l l l k h s s h l l l l l l l l l l ",
"l l l l l l l l l l l l l l l l l l k f b B j.h.q.w.w.w.=.#.w.w.#.#.+.+.` Q # # % O y f h l l l l l l k k l l l l l l l l l l l ",
"l l l l l l l l l l l l l l l l l l l f w M _ O.0.0.q.w.+.+.+.+.+.+.0.0.) 7 @ @ o q p h l l l l l l l l l l l l l l l l l l l l ",
"l l l l l l l l l l l l l l l l l l l l s m M ~ j..X0.9.@.@.2 2 2 2 .Xj.5 % X O u g k k l l l l l l l l l l l l l l l l l l l l ",
"l l l l l l l l l l l l l l l l l l l l k s w v  . XQ Q 2 ! 1 1 1 1  X| $   + q f l l l l l l l l l l l l l l l l l l l l l l l ",
"l l l l l l l l l l l l l l l l l l z z l k g m M 5 5 W 6 5 = = E = 5 M & o y u h l l l l l l l l l l l l l l l l l l l l l l l ",
"l l l l l l l l l l l l l l l l l z m.L l l l g q & * 4 - ; ; ; - - X o + 0 f h l l l l l l l l l l l l l l l l l l l l l l l l ",
"l l l l l l l l l l l l l l l l k z P m.P z k d S S y q # $ $ $ % $ , 0 y u d h l l l l l l l l l l l l l l l l l l l l l l l l ",
"l l l l l l l l l l l l l l l l l z m.m.D.P k k z l p i 0 , 0 0 , , y i f g l l l l l l l l l l l l l l l l l l l l l l l l l l ",
"l l l l l l l l l l l l l l l l j l D.D.m.x z z k j s s f f f f f f c j j j l l l l l l l l l l l l l l l l l l l l l l l l l l ",
"l l l l l l l l l l l l l l l l l l l x z m.m.z k j j j l l l l l l l l l l l l l l l l l l l l l l l l l l l l l l l l l l l l ",
"l l l l l l l l l l l l l l l l l l l l z m.z z l l k k k l l l l l l l l l l l l l l l l l l l l l l l l l l l l l l l l l l l ",
"l l l l l l l l l l l l l l l l l l j j l z z z l l l l l l l l l l l l l l l l l l l l l l l l l l l l l l l l l l l l l l l l ",
"l l l l l l l l l l l l l l l l l l l l l l z l l l l l l l l l l l l l l l l l l l l l l l l l l l l l l l l l l l l l l l l l ",
"l l l l l l l l l l l l l l l l l l l l l l l l l l l l l l l l l l l l l l l l l l l l l l l l l l l l l l l l l l l l l l l l ",
"l l l l l l l l l l l l l l l l l l l l l l l l l l l l l l l l l l l l l l l l l l l l l l l l l l l l l l l l l l l l l l l l ",
"l l l l l l l l l l l l l l l l l l l l l l l l l l l l l l l l l l l l l l l l l l l l l l l l l l l l l l l l l l l l l l l l ",
"l l l l l l l l l l l l l l l l l l l l l l l l l l l l l l l l l l l l l l l l l l l l l l l l l l l l l l l l l l l l l l l l ",
"l l l l l l l l l l l l l l l l l l l l l l l l l l l l l l l l l l l l l l l l l l l l l l l l l l l l l l l l l l l l l l l l ",
"l l l l l l l l l l l l l l l l l l l l l l l l l l l l l l l l l l l l l l l l l l l l l l l l l l l l l l l l l l l l l l l l ",
"l l l l l l l l l l l l l l l l l l l l l l l l l l l l l l l l l l l l l l l l l l l l l l l l l l l l l l l l l l l l l l l l ",
"l l l l l l l l l l l l l l l l l l l l l l l l l l l l l l l l l l l l l l l l l l l l l l l l l l l l l l l l l l l l l l l l ",
"l l l l l l l l l l l l l l l j l l l l l l l l l l l l l l l l l l l l l l l l l l l l l l l l l l l l l l l l l l l l l l l l ",
"l l l l l l l l l l l l l l l l l l l l l l l l l l l l l l l l l l l l l l l l l l l l l l l l l l l l l l l l l l l l l l l l ",
"l l l l l l l l l l l l l l l l l l l l l l l l l l l l l l l l l l l l l l l l l l l l l l l l l l l l l l l l l l l l l l l l "
};
