/* XPM */
static char *item[] = {
/* columns rows colors chars-per-pixel */
"64 64 208 2 ",
"   c #1D161F",
".  c #201B1A",
"X  c #29251B",
"o  c #312E1A",
"O  c #36331B",
"+  c #3B361B",
"@  c #3E3C1B",
"#  c #2A2527",
"$  c #362B28",
"%  c #393523",
"&  c #3D392C",
"*  c #3A3528",
"=  c #3D383C",
"-  c #413E1B",
";  c #433835",
":  c #403D2D",
">  c #782939",
",  c #6C2837",
"<  c #45431B",
"1  c #4C4B1B",
"2  c #4C451B",
"3  c #504F1B",
"4  c #53521B",
"5  c #5B5B1B",
"6  c #575A18",
"7  c #65571D",
"8  c #5F6219",
"9  c #666C17",
"0  c #686F16",
"q  c #62641B",
"w  c #666A1B",
"e  c #6A6D1B",
"r  c #6A641E",
"t  c #6A7017",
"y  c #6D721A",
"u  c #72751B",
"i  c #76791E",
"p  c #797A1F",
"a  c #78771F",
"s  c #766A1C",
"d  c #494729",
"f  c #544B26",
"g  c #535224",
"h  c #575628",
"j  c #4A4433",
"k  c #544B37",
"l  c #585338",
"z  c #645225",
"x  c #715634",
"c  c #676922",
"v  c #6A6B23",
"b  c #676729",
"n  c #6E7223",
"m  c #737624",
"M  c #767A21",
"N  c #7A7D21",
"B  c #72732C",
"V  c #797624",
"C  c #78683E",
"Z  c #757634",
"A  c #473C41",
"S  c #533D47",
"D  c #7A3142",
"F  c #673B48",
"G  c #4D4748",
"H  c #524B4D",
"J  c #5C4746",
"K  c #5C5848",
"L  c #5A5347",
"P  c #524C52",
"I  c #5E4050",
"U  c #5C5757",
"Y  c #654C49",
"T  c #665245",
"R  c #785745",
"E  c #644A54",
"W  c #654B59",
"Q  c #644551",
"!  c #764956",
"~  c #645D57",
"^  c #735A54",
"/  c #7D494F",
"(  c #69665B",
")  c #726659",
"_  c #6B684F",
"`  c #5C5861",
"'  c #755865",
"]  c #6B6761",
"[  c #706C76",
"{  c #7A7273",
"}  c #8D2738",
"|  c #832231",
" . c #972B3A",
".. c #A22D3B",
"X. c #AB313D",
"o. c #A5323F",
"O. c #B3343D",
"+. c #B9363D",
"@. c #CC3B3F",
"#. c #C7393F",
"$. c #D43D3F",
"%. c #8D5C3D",
"&. c #B55335",
"*. c #B24A34",
"=. c #866424",
"-. c #827D24",
";. c #857E2A",
":. c #88673B",
">. c #98773A",
",. c #93662C",
"<. c #AA6C3A",
"1. c #A47C3C",
"2. c #B47137",
"3. c #C54B37",
"4. c #D4453E",
"5. c #D54A3D",
"6. c #DB4A3E",
"7. c #DD463F",
"8. c #C25036",
"9. c #E0463F",
"0. c #E24C3F",
"q. c #823646",
"w. c #9B3644",
"e. c #953242",
"r. c #A63946",
"t. c #D43E40",
"y. c #865B4B",
"u. c #915749",
"i. c #844D5F",
"p. c #99474A",
"a. c #AD4549",
"s. c #A75644",
"d. c #836F45",
"f. c #976A46",
"g. c #8B7847",
"h. c #9A784A",
"j. c #856659",
"k. c #8C7A56",
"l. c #AB6945",
"z. c #A96652",
"x. c #BA7050",
"c. c #AF704B",
"v. c #9B5D6B",
"b. c #836565",
"n. c #8D6E6E",
"m. c #AA7A74",
"M. c #DF4041",
"N. c #E14241",
"B. c #C97744",
"V. c #7F8124",
"C. c #7E812B",
"Z. c #7C8135",
"A. c #858125",
"S. c #898329",
"D. c #988B2E",
"F. c #80813C",
"G. c #9D8B33",
"H. c #9F9030",
"J. c #9F902F",
"K. c #A0902F",
"L. c #A28B34",
"P. c #AC853D",
"I. c #AD8B3C",
"U. c #A7863A",
"Y. c #A19231",
"T. c #AD9836",
"R. c #AF9339",
"E. c #AC9735",
"W. c #B09A36",
"Q. c #B2943B",
"!. c #B89B3C",
"~. c #B18F3D",
"^. c #BEA03E",
"/. c #C1A43F",
"(. c #828343",
"). c #898A44",
"_. c #908352",
"`. c #AD8C41",
"'. c #BB9740",
"]. c #A38557",
"[. c #8E876D",
"{. c #95916C",
"}. c #9A9877",
"|. c #85837E",
" X c #A58E67",
".X c #C09D41",
"XX c #C6A740",
"oX c #888788",
"OX c #999987",
"+X c #A59F85",
"@X c #96A196",
"#X c #99A19B",
"$X c #9EA18B",
"%X c #A3A185",
"&X c #A7A28A",
"*X c #ACA28D",
"=X c #A7A493",
"-X c #AEAB97",
";X c #B1AC9C",
":X c #9AA5A6",
">X c #AEAFA9",
",X c #B2AEA5",
"<X c #B5B6B1",
"1X c #DADAD6",
"2X c #CCD0D3",
"3X c #E1E0DE",
"4X c #E9E9E7",
"5X c #F5F5F5",
/* pixels */
"u u u u u u u u u u u u u u u u u u u u u u u u u u u u u u u u u u u u u u u u u u u u u u u u u u u u u u u u u u u u u u u u ",
"u u u u u u u u u u u u u u u u u u u u u u u u u u u u u u u u u u u u u u u u u u u u u u u u u u u u u u u u u u u u u u u u ",
"u u u u u u u u u u u u u u u u u u u u u u u u u u u u u u u u u u u u u u u u u u u u u u u u u u u u u u u u y u u u u u u u ",
"u u u u u u u u u u u u u u u u u u u u u u u u u u u u u u u u u u u u u u u u u u u u u u u u u u u u u u u u u u u u u u u u ",
"u u u u u u u u u u u u u u u u u u u u u u u u u u u u u u u u u u u u u u u u u u u u u u u u u u u u y u u u u u u u u u u u ",
"u u u u u u u u u u u u u u u u u u u u u u u u u u u u u u u u u u u u u u u u u u u u u u u u u u u u u u u u u u u u u u u u ",
"u u u u u u u u u u u u u u u u u u u u u u u u u u u u u u u u u u u u u u u u u u u u u u u u u u u u u u u u u u u u u u u u ",
"u u u u u u u u u u u u u u u u u u u u u u u u u u u u u u u u u u u u u u u u u u u u u u u u u u u u u u u u u u u u u u u y ",
"u u u u u u u u u u u u u u u u u u u u u u u u u u u u u u u u u u u u u u u u u u u u u u u u u u u u u u u u u u u u u u u u ",
"u u u u u u u u u u u u u u i u u u u u u u u u u u u u u u u u u u u u u u u u u u u u u u u u u u u u u u u u u u u u u u u u ",
"u u u u u u u u u u u u u u p p u u u u u u u u u u u u u u u u u u u u u u u u u u u u u u u u u u u u u u u u u u u u u u u u ",
"u u u u u u u u u u u u i i V.p i u u u i i i u u u u u u u u u u u u u u u u u u u u u u u u u u u u u u u u u u u u u u u u u ",
"u u u u u u u u u u y u i i N N i u u i V.V.p V.p a u u u u u u u u u u u u u u u u u u u u u u u u u u u u u u u u u u u u u u ",
"u u u u u u u i u u u i i i i i u u u i p V.V.p p p u u u u u u u u u u u u u u u u u u u u u u u u u u u u u u u u u u u u u u ",
"u u u u u u i i u u u i i i y y y u u i p V.A.A.a u u u u u u u u u u u u u u u u u u u u u u u u u u u u u u u u u u u u u u u ",
"u u u u u u i i i i u i i u y y u u i V.p p p p u u u u 9 q q r 9 9 u u u u u u u u u u u u u u u u u u u u u u u u u u u u u u ",
"u u u u u u u i p V.i i y y u u u u p N N i y y u u u y 4 3 3 3 3 4 y i i u m u u u u u u u u u u u u u u u u u u u u u u u u u ",
"u u u u u u u i p V.p p p A.A.A.p u i N i i y y v e c b z h z 7 f f c q w w y u u u u u u u u u u u u u u u u u u u u u u u u u ",
"u u u u u u u i p V.N S.Y.T.W.Y.A.p N i y y u m b b j L :.h.<.<.%.%.d j g h e u u u u u u u u u u u u u u u u u u u u u u u u u ",
"u u u u u u u u i -.S.D.R.!.!.R.D.A.N u y y i M b b U ] z.c.B.B.l.l.P G d 1 y u u u u u u u u u u u u u u u u u u u u u u u u u ",
"u u u u u u u u u -.Y.W.I.P.P.I.R.Y.p y u i M i q b oXoXj.:.x.x.2.l.{ [ * @ w y u u u u u u u u u u u u u u u u u u u u u u u u ",
"u u u u u u u u u N K.R.P.P.P.I.R.Y.p y i M M y q b |.oXj.y.z.z.<.l.{ [ * O q y u u u u u u u u u u u u u u u u u u u u u u u u ",
"u u u u u u u u u u M S.R.'.'.R.S.a e y i i y y y c L P j.j.p.y.y.^ A = # + q y u u u u u u u u u u u u u u u u u u u u u u u u ",
"u u u u u u u u u u e M H.W.W.J.V 9 0 u N -.M i u w : ; ) b.R R ^ ^ # # O @ 9 y u u u u u u u u u u u u u u u u u u u u u u u u ",
"u u u u u u u u u u y u u i i i u u u -.K.~.R.L.p r o $ ( ) x x T J   . < 3 e u u u u u u u u i V.V.V.i u u u u u u u u i i i p ",
"u i u u u u u u u u u y 0 0 9 w u u a ;.I.~.~.R.-.v j ; ) { R x k J # # d 6 y u u u u u u u y i i V.V.V.i i u u u u y u V.i i V.",
"V.V.V.i u u u u u u u u u u y u u -.L.I.U.1.1.>.:.) :X>X4X4X&XOX1 d ` U d g e u u u u u u y u y u i V.V.V.u i i u u A.V.V.V.u t ",
"V.A.i i u i u u u u u u u u u u u -.L.~.P.1.1.h.g.k.<X2X5X5X,X-X1 g ( ( l h c y y u u u u i i i u i i V.V.i i i u p A.V.V.V.u u ",
"V.i M M M i u u u u u u u u u u u u 0 -.I.~.g.g.$X,X4X5X4X3XOXOXy y m m ] ( g g w u u u y V.V.V.V.i y y i V.0 y M M M V.0 t u u ",
"V.V.i V.V.i u u u u u u u u u u a u s -.L.I.>.).=X<X4X5X3X2X}.oXu u u m ] ] k g w t u M i i V.V.V.i y t u V.t y M V.C.C.t y u u ",
"0 0 i i i M y u u u u u u u u A.W././.L.h l -X-X) K K K d % % + u u u u y v ( K d < w u u V.V.V.i u V.i y 0 0 y i Z.@X:X:X#XM y ",
"0 0 V.i M V.i y u u u u u u y A.W././.L.7 l -X-X_ k l L % O O O u u u u u v ( U * < w u y u V.V.V.V.V.u y 0 0 t i Z.#X:X:X:Xm u ",
"u u 0 0 0 0 u u u u u u u A.W..X`.,.x C {.[.k 2 7 s &.8.N.N.0.N.M.M.8.&.,.N y v K G % < 9 y y e M ).$X>X>X$XF.u M ;.h.].:X:Xi u ",
"u u 0 0 0 0 y u u u u u u S.W.'.`.>.x C {.[.h 2 7 s &.3.6.N.0.0.N.M.M.8.,.=.r b L P : < q y y n M ).%X>X,X%XF.M M ;.h._.@X#Xm u ",
"u u u u u u u u u u u u u A.W.XX/.G.3 j n.m.s.*.5.0.7.7.9.N.9.N.N.N.N.M.6.4.3.&.u.x o o 6 y u (.+X*X X].]. X&X%XZ.y w w w v i u ",
"u u u u u u u u u u u u u A.T.!.!.>.d j n.m.s.*.6.6.N.N.N.N.N.N.N.N.N.M.$.4.8.a.p.Y $ o 6 e u ;.}.&X X].]. X&XOXZ u 0 9 w 9 u u ",
"u u u u u u u u u u u u u u y u y q 2 k b.v.a.+.@.M.M.M.N.N.N.N.N.N.M.M.$.$.+.o./ Q $ o 6 e y i n (.%X,X;X+X(.n u i u y u u u u ",
"u u u u u u u u u u u u u y 0 9 9 q 3 l n.v.a.+.#.@.t.4.9.9.N.$.M.N.t.t.$.@.X.w.i.E $ o 6 e y e y Z {.&X=X}.B e y u u u u u u u ",
"u u u u u u u u u u u u u u y y y u s b ) ' a.r.X.O.O.O.9.0.$.$.N.0.O.O.O.O. .q.' U * @ 7 y u u u m B B B B y y u u u u u u u u ",
"u u u u u u u u u u u u u u u u u u u v _ ^ p.w...X.X.X.7.$.@.@.5.6.X.X... .> , W P * - 5 y u u u y w 0 9 e u u u u u u u u u u ",
"u u u u u u u u u u u u u u u u u u u w h k J ! r.X.X.X.O.O.X.O.O.O.o.o.| | F S = & + < q u u u u u u u y y u u u u u u u u u u ",
"u u u u u u u u u u u u u u u u u u u w 6 f k J q. .r.r.r.........e.a.w.> , S A % + < 3 w u u u u u u u u u u u u u u u u u u u ",
"u u u u u u u u u u u u u u u u u u u u e q g j Y Q v.b. .} } } | > i.! S S * * + < 6 w e u u u u u u u u u u u u u u u u u u u ",
"u u u u u u u u u u u u u u u u u u i u u e 8 g G I ' ' q.D q.D > > E W G A $ O 2 4 w u u u u u u u u u u u u u u u u u u u u u ",
"u u u u u u u u u u u u u u u u u y M M u y e q g j ; ; Q W W W U W $ $ * * + < 5 w u u u u u u u u u u u u u u u u u u u u u u ",
"u u u u u u u u u u u u u u u u u i M N M i u e 5 3 o $ P H P P P P X X X % 2 4 e u u u u u u u u u u u u u u u u u u u u u u u ",
"u u u u u u u u u u u u u u u u u i N V.N M y y y r < @ & & * & & * X X + < 5 e u u u u u u u u u u u u u u u u u u u u u u u u ",
"u u u u u u u u u u u u u u u u u i N A.V.N u y u y 4 3 2 < < < d @ @ @ 1 1 y u u u u u u u u u u u u u u u u u u u u u u u u u ",
"u u u u u u u u u u u u u u u u u u -.A.V.p u u y t 9 8 q q q q q q q q 9 9 u u u u u u u u u u u u u u u u u u u u u u u u u u ",
"u u u u u u u u u u u u u u u u u u u p V.i V.i u t t 0 u u u u y u y u s u u u u u u u u u u u u u u u u u u u u u u u u u u u ",
"u u u u u u u u u u u u u u u u u u u u u p V.i u y y y u u u u u u u u u u u u u u u u u u u u u u u u u u u u u u u u u u u u ",
"u u u u u u u u u u u u u u u u u u t t u i i i u u u u u u u u u u u u u u u u u u u u u u u u u u u u u u u u u u u u u u u u ",
"u u u u u u u u u u u u u u u u u u u u u u u u u u u u u u u u u u u u u u u u u u u u u u u u u u u u u u u u u u u u u u u u ",
"y u u u u u u u u u u u u u u u u u u u u u u u u u u u u u u u u u u u u u u u u u u u u u u u u u u u u u u u u u u u u u u u ",
"u u u u u u u u u u u u u u u u u u u u u u u u u u u u u u u u u u u u u u u u u u u u u u u u u u u u u u u u u u u u u u u y ",
"u u u u u u u u u u u u u u u u u u u u u u u u u u u u u u u u u u u u u u u u u u u t u u u u u u u u u u u u u u u u u u u u ",
"u u u u u u u u u u u u u u u u u u u u u u u u u u u u u u u u u u u u u u u u u u u u u u u u u u u u u u u u u u u u u u u u ",
"u u u u u u u u u u u u u u u u u u u u u u u u u u u u u u u u u u u u u u u u u u u u u u u u u u u u u u u u u u u u u u u u ",
"u u u u u u u u u u u u u u u u u u u u u u u u u u u u u u u u u u u u u u u u u u u u u u u u u u u u u u u u u u u u u u u u ",
"u u u u u u u u u u u u u u u u u u u u u u u u u u u u u u u u u u u u u u u u u u u u u u u u u u u u u u u u u u u u u u u u ",
"u u u u u u u u u u u u u u u u u u u u u u u u u u u u u u u u u u u u u u u u u u u u u u u u u u u u u u u u u u u u u u u u ",
"u u u u u u u u u u u u u u u u u u u u u u u u u u u u u u u u u u u u u u u u u u u u u u u u u u u u u u u u u u u u u u u u ",
"u u u u u u u t u u u u u u u u u u u u u u u u u u u u u u u u u u u u u u u u u u u u u u u u u u u u u u u u u u u u u u u u ",
"u u u u u u u u u u u u u u u u u u u u u u u u u u u u u u u u u u u u u u u u y u u u u u u u u u u u u u u u u u u u u u u u "
};
