/* XPM */
static char *monster_3[] = {
/* columns rows colors chars-per-pixel */
"64 64 153 2 ",
"   c #2E1E22",
".  c #312125",
"X  c #323234",
"o  c #3A3B32",
"O  c #3D3D3B",
"+  c #403B2C",
"@  c #413333",
"#  c #433B3B",
"$  c #5D631A",
"%  c #636917",
"&  c #686F16",
"*  c #64661F",
"=  c #6E711D",
"-  c #72751B",
";  c #41422D",
":  c #47482B",
">  c #594C23",
",  c #555725",
"<  c #5C5E22",
"1  c #52532C",
"2  c #5C5F2C",
"3  c #46463A",
"4  c #5C5130",
"5  c #565936",
"6  c #585438",
"7  c #62542A",
"8  c #645A39",
"9  c #5F6423",
"0  c #5F622C",
"q  c #5D603B",
"w  c #626424",
"e  c #666926",
"r  c #6A6E21",
"t  c #62652B",
"y  c #666828",
"u  c #6A6D2A",
"i  c #737622",
"p  c #787B21",
"a  c #7A7D28",
"s  c #6A6D37",
"d  c #60633D",
"f  c #66693B",
"g  c #404042",
"h  c #4B4B4A",
"j  c #574F41",
"k  c #5C5A49",
"l  c #4F4F51",
"z  c #525254",
"x  c gray37",
"c  c #676A42",
"v  c #686B45",
"b  c #6A6449",
"n  c #6E7144",
"m  c #6E714C",
"M  c #727548",
"N  c #787B4A",
"B  c #666151",
"V  c #767954",
"C  c #7A7D56",
"Z  c #777A5A",
"A  c #695E60",
"S  c #6A6363",
"D  c #6D6D6E",
"F  c #746B66",
"G  c #7C7E6D",
"H  c #736D70",
"J  c #796F71",
"K  c #757475",
"L  c #A2783C",
"P  c #837A7C",
"I  c #7F8124",
"U  c #7D8154",
"Y  c #7D8159",
"T  c #858857",
"R  c #82865C",
"E  c #A2814F",
"W  c #8B8E64",
"Q  c #848468",
"!  c #878A6D",
"~  c #8D906A",
"^  c #969A65",
"/  c #979B6D",
"(  c #8B8970",
")  c #8B8B7E",
"_  c #969976",
"`  c #96987C",
"'  c #A59B7D",
"]  c #9EA26F",
"[  c #9FA375",
"{  c #A1A574",
"}  c #A0A47C",
"|  c #A5A978",
" . c #C6A740",
".. c #838384",
"X. c #878788",
"o. c #8C8B8B",
"O. c #8E8E90",
"+. c #9C9496",
"@. c #9D9E92",
"#. c #979799",
"$. c #9EA08D",
"%. c #A3A583",
"&. c #ABAE84",
"*. c #ACB083",
"=. c #AFB28A",
"-. c #B2B68B",
";. c #AAA897",
":. c #AFAE9F",
">. c #B2B597",
",. c #B9BC9B",
"<. c #9CA8AD",
"1. c #AAA9A7",
"2. c #ADACAD",
"3. c #B1B3A7",
"4. c #BABCA1",
"5. c #B2B2B5",
"6. c #B9BAB3",
"7. c #BCBCBC",
"8. c #BEC29B",
"9. c #BFC2A6",
"0. c #BFC0B3",
"q. c #C1C4A2",
"w. c #C5C8A6",
"e. c #C7CAA8",
"r. c #CACEAD",
"t. c #CACCB7",
"y. c #CFD2B6",
"u. c #D1D3B7",
"i. c #D3D6B9",
"p. c #D5D8BE",
"a. c #C9C5C5",
"s. c #D1D0C3",
"d. c #DBDEC5",
"f. c #DDDFCC",
"g. c #D9D6D6",
"h. c #DFDFD7",
"j. c #DEDDDE",
"k. c #DEE1C9",
"l. c #DFE0D0",
"z. c #E2E4CF",
"x. c #E4E6D2",
"c. c #E7E9D6",
"v. c #EBEDDE",
"b. c #E1DFE0",
"n. c #E7E6E4",
"m. c #ECEDE1",
"M. c #ECEBEC",
"N. c #EFF0E3",
"B. c #F1F2E7",
"V. c #F4F4EC",
"C. c #F5F5F1",
"Z. c #F9FAF6",
"A. c #FEFEFE",
/* pixels */
"- - - - - - - - - - - - - - - - - - - - - - - - - - - - - - - - - - - - - - - - - - - - - - - - - - - - - - - - - - - - - - - - ",
"- - - - - - - - - - - - - - - - - - - - - - - - - - - - - - - - - - - - - - - - - - - - - - - - - - - - - - - - - - - - - - - - ",
"- - - - - - - - - - - - - - - - - - - - - - - - - - - - - - - - - - - - - - - - - - - - - - - - - - - - - - - - - - - - - - - - ",
"- - - - - - - - - - - - - - - - - - - - - - - - - - - - - - - - - - - - - - - - - - - - - - - - - - - - - - - - - - - - - - - - ",
"- - - - - - - - - - - - - - - - - - - - - - - - - - y y t t t t 0 0 t t t t r r - - - - - - - - - - - - - - - - - - - - - - - - ",
"- - - - - - - - - - - - - - - - - - - - - - - - - - y y t t t t 0 0 t t t t r r - - - - - - - - - - - - - - - - - - - - - - - - ",
"- - - - - - - - - - - - - - - - - - - - - - r r 2 2 N N T T ` ` } } _ _ T T n n 2 2 = = - - - - - - - - - - - - - - - - - - - - ",
"- - - - - - - - - - - - - - - - - - - - - - r r 2 2 N N T T ` ` } } _ _ T T n n 2 2 = = - - - - - - - - - - - - - - - - - - - - ",
"- - - - - - - - - - - - - - - - - - - - r r M M { { -.-.i.i.f.f.k.k.d.d.r.r.-.-./ / f f = = - - - - - - - - - - - - - - - - - - ",
"- - - - - - - - - - - - - - - - - - - - r r M M { { -.-.i.i.f.f.k.k.d.d.r.r.-.-./ / f f = = - - - - - - - - - - - - - - - - - - ",
"- - - - - - - - - - - - - - I I - - r r v v | | u.u.z.z.x.x.x.x.x.x.x.x.x.x.x.x.r.r.] ] q q - - - - - - - - - - - - - - - - - - ",
"- - - - - - - - - - - - - - I I - - r r v v | | u.u.z.z.x.x.x.x.x.x.x.x.x.x.x.x.r.r.] ] q q - - - - - - - - - - - - - - - - - - ",
"- - - - - - - - - - - - p p p p - - r r C C r.r.x.x.c.c.Z.Z.A.A.A.A.A.A.C.C.c.c.x.x.w.w.c c = = - - - - - - - - - - - - - - - - ",
"- - - - - - - - - - - - p p p p - - r r C C r.r.x.x.c.c.Z.Z.A.A.A.A.A.A.C.C.c.c.x.x.w.w.c c = = - - - - - - - - - - - - - - - - ",
"- - - - - - p p - - - - p p & & - - d d } } e.e.z.z.V.V.A.A.A.A.A.A.A.A.A.A.B.B.k.k.q.q.{ { 5 5 - - - - - - - - - - - - - - - - ",
"- - - - - - p p - - - - p p & & - - d d } } e.e.z.z.V.V.A.A.A.A.A.A.A.A.A.A.B.B.k.k.q.q.{ { 5 5 - - - - - - - - - - - - - - - - ",
"- - - - - - - - I I p p & & - - - - G G 6.6.,.,.d.d.m.m.A.A.A.A.A.A.A.A.A.A.v.v.i.i.e.e.8.8.5 5 - - - - - - - - - - - - - - - - ",
"- - - - - - - - I I p p & & - - - - G G 6.6.,.,.d.d.m.m.A.A.A.A.A.A.A.A.A.A.v.v.i.i.e.e.8.8.5 5 - - - - - - - - - - - - - - - - ",
"- - - - - - - - p p p p  . . . .p p 7.7.j.j.7.7.V.V.V.V.N.N.A.A.A.A.Z.Z.B.B.V.V.V.V.x.x.8.8.5 5 - - - - - - - - - - - - - - - - ",
"- - - - - - - - p p p p  . . . .p p 7.7.j.j.7.7.V.V.V.V.N.N.A.A.A.A.Z.Z.B.B.V.V.V.V.x.x.8.8.5 5 - - - - - - - - - - - - - - - - ",
"- - - - - - - - - -  . .L L L L ' ' M.M.j.j.2.2.a.a.b.b.C.C.m.m.v.v.N.N.V.V.g.g.a.a.s.s.8.8.6 6 - - - - - - - - - - - - - - - - ",
"- - - - - - - - - -  . .L L L L ' ' M.M.j.j.2.2.a.a.b.b.C.C.m.m.v.v.N.N.V.V.g.g.a.a.s.s.8.8.6 6 - - - - - - - - - - - - - - - - ",
"- - - - - - - - - - % %  . . . .#.#.A.A.j.j.H H # # J J g.g.Z.Z.Z.Z.C.C.a.a.S S # # F F %.%.5 5 - - - - - - - - - - - - - - - - ",
"- - - - - - - - - - % %  . . . .#.#.A.A.j.j.H H # # J J g.g.Z.Z.Z.Z.C.C.a.a.S S # # F F %.%.5 5 - - - - - - - - - - - - - - - - ",
"- - - - - - - - - - - - % % % % #.#.A.A.j.j.S S     . . +.+.Z.Z.A.A.M.M.P P . .         b b 6 6 I I I I - - - - - - - - p p p p ",
"- - - - - - - - - - - - % % % % #.#.A.A.j.j.S S     . . +.+.Z.Z.A.A.M.M.P P . .         b b 6 6 I I I I - - - - - - - - p p p p ",
"I I p p - - - - - - - - - - - - #.#.A.A.j.j.S S     . . +.+.V.V.x.x.n.n.P P . .         b b 6 6 - - I I p p i i = = I I I I - - ",
"I I p p - - - - - - - - - - - - #.#.A.A.j.j.S S     . . +.+.V.V.x.x.n.n.P P . .         b b 6 6 - - I I p p i i = = I I I I - - ",
"I I p p p p - - - - - - - - - - #.#.A.A.j.j.D D @ @ J J g.g.&.&.w.w.,.,.a.a.A A o o j j 6 6 I I a a $ $ 1 1 X X w w p p & & - - ",
"I I p p p p - - - - - - - - - - #.#.A.A.j.j.D D @ @ J J g.g.&.&.w.w.,.,.a.a.A A o o j j 6 6 I I a a $ $ 1 1 X X w w p p & & - - ",
"& & p p p p - - - - - - - - - - #.#.A.A.j.j.) ) ( ( :.:.m.m.h.h.V.V.x.x.h.h.;.;.Q Q v v c c y y 0 0 g g z z g g w w <.<.<.<.- - ",
"& & p p p p - - - - - - - - - - #.#.A.A.j.j.) ) ( ( :.:.m.m.h.h.V.V.x.x.h.h.;.;.Q Q v v c c y y 0 0 g g z z g g w w <.<.<.<.- - ",
"- - & & & & - - - - - - - -  . .#.#.A.A.l.l.) ) Y Y 6 6 ` ` U U %.%.R R ( ( c c Y Y &.&.9.9.X X D D K K B B 3 3 w w E E <.<.- - ",
"- - & & & & - - - - - - - -  . .#.#.A.A.l.l.) ) Y Y 6 6 ` ` U U %.%.R R ( ( c c Y Y &.&.9.9.X X D D K K B B 3 3 w w E E <.<.- - ",
"- - - - - - - - - - - - - -  . .#.#.A.A.n.n.3.3.t.t.w.w.7.7.R R C C ~ ~ 0.0.0.0.t.t.r.r.v.v.X X 2.2.b b 4 4 o o < < % % % % - - ",
"- - - - - - - - - - - - - -  . .#.#.A.A.n.n.3.3.t.t.w.w.7.7.R R C C ~ ~ 0.0.0.0.t.t.r.r.v.v.X X 2.2.b b 4 4 o o < < % % % % - - ",
"- - - - - - - - - - - - - - % % #.#.A.A.j.j.$.$.=.=.=.=.e.e.x.x.y.y.f.f.q.q.=.=.*.*.Y Y Z Z X X 1.1.> > 8 8 O O < < - - - - - - ",
"- - - - - - - - - - - - - - % % #.#.A.A.j.j.$.$.=.=.=.=.e.e.x.x.y.y.f.f.q.q.=.=.*.*.Y Y Z Z X X 1.1.> > 8 8 O O < < - - - - - - ",
"- - - - - - - - - - - - : : o o x x ........D D h h 6.6.C.C.e.e.8.8.y.y.C.C.c.c.9.9.m m = = X X 5.5.o.o.K K g g < < - - - - - - ",
"- - - - - - - - - - - - : : o o x x ........D D h h 6.6.C.C.e.e.8.8.y.y.C.C.c.c.9.9.m m = = X X 5.5.o.o.K K g g < < - - - - - - ",
"- - - - - - - - - - - - ; ; o.o.#.#.#.#.#.#.X.X.l l V V -.-.^ ^ ^ ^ [ [ *.*.^ ^ v v r r - - X X 5.5.o.o.B B + + < < - - - - - - ",
"- - - - - - - - - - - - ; ; o.o.#.#.#.#.#.#.X.X.l l V V -.-.^ ^ ^ ^ [ [ *.*.^ ^ v v r r - - X X 5.5.o.o.B B + + < < - - - - - - ",
"- - - - - - - - - - - - - - o o O O x x g g o o @.@.r.r.m m 5 5 ^ ^ 5 5 R R i.i.r.r.m m = = X X 1.1.> > 7 7 o o < < - - - - - - ",
"- - - - - - - - - - - - - - o o O O x x g g o o @.@.r.r.m m 5 5 ^ ^ 5 5 R R i.i.r.r.m m = = X X 1.1.> > 7 7 o o < < - - - - - - ",
"- - - - - - - - - - - - - - 0 0 T T 4.4.W W n n q.q.v.v.&.&.n n &.&.M M ,.,.v.v.=.=.f f = = ; ; O.O.8 8 8 8 3 3 w w - - - - - - ",
"- - - - - - - - - - - - - - 0 0 T T 4.4.W W n n q.q.v.v.&.&.n n &.&.M M ,.,.v.v.=.=.f f = = ; ; O.O.8 8 8 8 3 3 w w - - - - - - ",
"- - - - - - - - - - - - - - - - t t t t u u 9 9 C C q.q.$.$.U U U U T T >.>.f.f.Q Q r r = = - - O O P P k k , , - - - - - - - - ",
"- - - - - - - - - - - - - - - - t t t t u u 9 9 C C q.q.$.$.U U U U T T >.>.f.f.Q Q r r = = - - O O P P k k , , - - - - - - - - ",
"- - - - - - - - - - - - - - - - - - a a p p e e v v / / U U 5 5 t t 5 5 / / p.p.! ! r r - - - - 1 1 h h k k * * - - - - - - - - ",
"- - - - - - - - - - - - - - - - - - a a p p e e v v / / U U 5 5 t t 5 5 / / p.p.! ! r r - - - - 1 1 h h k k * * - - - - - - - - ",
"- - - - - - - - - - - - - - - - - - & & p p i i s s V V m m e e i i / / x.x.x.x.Q Q = = - - - - - - , , * * - - - - - - - - - - ",
"- - - - - - - - - - - - - - - - - - & & p p i i s s V V m m e e i i / / x.x.x.x.Q Q = = - - - - - - , , * * - - - - - - - - - - ",
"- - - - - - - - - - - - - - - - - - - - - - - - = = r r r r - - - - -.-.A.A.A.A.` ` e e - - - - - - - - - - - - - - - - - - - - ",
"- - - - - - - - - - - - - - - - - - - - - - - - = = r r r r - - - - -.-.A.A.A.A.` ` e e - - - - - - - - - - - - - - - - - - - - ",
"- - - - - - - - - - - - - - - - - - - - - - - - - - - - - - - - - - p p a a a a - - = = - - - - - - - - - - - - - - - - - - - - ",
"- - - - - - - - - - - - - - - - - - - - - - - - - - - - - - - - - - p p a a a a - - = = - - - - - - - - - - - - - - - - - - - - ",
"- - - - - - - - - - - - - - - - - - - - - - - - - - - - - - - - - - - - - - - - - - - - - - - - - - - - - - - - - - - - - - - - ",
"- - - - - - - - - - - - - - - - - - - - - - - - - - - - - - - - - - - - - - - - - - - - - - - - - - - - - - - - - - - - - - - - ",
"- - - - - - - - - - - - - - - - - - - - - - - - - - - - - - - - - - - - - - - - - - - - - - - - - - - - - - - - - - - - - - - - ",
"- - - - - - - - - - - - - - - - - - - - - - - - - - - - - - - - - - - - - - - - - - - - - - - - - - - - - - - - - - - - - - - - ",
"- - - - - - - - - - - - - - - - - - - - - - - - - - - - - - - - - - - - - - - - - - - - - - - - - - - - - - - - - - - - - - - - ",
"- - - - - - - - - - - - - - - - - - - - - - - - - - - - - - - - - - - - - - - - - - - - - - - - - - - - - - - - - - - - - - - - ",
"- - - - - - - - - - - - - - - - - - - - - - - - - - - - - - - - - - - - - - - - - - - - - - - - - - - - - - - - - - - - - - - - ",
"- - - - - - - - - - - - - - - - - - - - - - - - - - - - - - - - - - - - - - - - - - - - - - - - - - - - - - - - - - - - - - - - "
};
