/* XPM */
static char *monster[] = {
/* columns rows colors chars-per-pixel */
"64 64 170 2 ",
"   c #2E1E22",
".  c #312124",
"X  c #352629",
"o  c #3E312C",
"O  c #3C2D31",
"+  c #343436",
"@  c #3C3C32",
"#  c #453737",
"$  c #646A17",
"%  c #686F16",
"&  c #656B1D",
"*  c #6B6D1D",
"=  c #6E711C",
"-  c #72751B",
";  c #44452B",
":  c #4A4B2A",
">  c #5B4E25",
",  c #545627",
"<  c #5B5C27",
"1  c #52532C",
"2  c #43443B",
"3  c #4E4439",
"4  c #534B31",
"5  c #535534",
"6  c #5A5437",
"7  c #565934",
"8  c #595C33",
"9  c #5A553D",
"0  c #5C5D3C",
"q  c #625327",
"w  c #67582A",
"e  c #5F622D",
"r  c #5D603C",
"t  c #626421",
"y  c #666A24",
"u  c #6A6E22",
"i  c #616429",
"p  c #66692D",
"a  c #686B2F",
"s  c #6D7028",
"d  c #757825",
"f  c #787B21",
"g  c #626434",
"h  c #696C32",
"j  c #626638",
"k  c #7B7D3B",
"l  c #3F3F41",
"z  c #434344",
"x  c #494847",
"c  c #4A494A",
"v  c #5B4F4D",
"b  c #5A5648",
"n  c #545352",
"m  c #5A5A5C",
"M  c #63594F",
"N  c #655D59",
"B  c #636543",
"V  c #666945",
"C  c #6A6649",
"Z  c #6A6C4D",
"A  c #726744",
"S  c #6D7046",
"D  c #727646",
"F  c #74774D",
"G  c #75784B",
"H  c #6E655D",
"J  c #736D5B",
"K  c #6D7050",
"L  c #727453",
"P  c #757952",
"I  c #7A7E52",
"U  c #757858",
"Y  c #7B7E59",
"T  c #656567",
"R  c #6C6C6E",
"E  c #706A6A",
"W  c #757163",
"Q  c #75726C",
"!  c #7A776F",
"~  c #727274",
"^  c #7C7973",
"/  c #777779",
"(  c #A2783C",
")  c #A07A45",
"_  c #7F8124",
"`  c #7E813E",
"'  c #7E8155",
"]  c #7E8066",
"[  c #90823B",
"{  c #828452",
"}  c #82845D",
"|  c #86885B",
" . c #898D5C",
".. c #8D905D",
"X. c #90945F",
"o. c #A2814F",
"O. c #BDA450",
"+. c #868963",
"@. c #969A64",
"#. c #92956E",
"$. c #95996C",
"%. c #88877B",
"&. c #939573",
"*. c #969A73",
"=. c #9CA06E",
"-. c #9EA27C",
";. c #B3A164",
":. c #A1A475",
">. c #A3A77B",
",. c #A6AA7A",
"<. c #A8AC7D",
"1. c #C6A740",
"2. c #7F7F82",
"3. c #887F81",
"4. c #838385",
"5. c #868688",
"6. c #8A8A8C",
"7. c #8F8F91",
"8. c #999293",
"9. c #99999B",
"0. c #A6AA86",
"q. c #B8AE8D",
"w. c #ACB088",
"e. c #B2B68B",
"r. c #B5B98F",
"t. c #A2A390",
"y. c #B7BB92",
"u. c #B2B49C",
"i. c #9CA8AD",
"p. c #A3A3A5",
"a. c #ADA7A9",
"s. c #B9B8A6",
"d. c #B3B0A9",
"f. c #B1B1B2",
"g. c #BBB6B7",
"h. c #BCBCBE",
"j. c #BDC19B",
"k. c #C2C5A3",
"l. c #C6CAA8",
"z. c #CCCEB2",
"x. c #CBCBBA",
"c. c #CED1B4",
"v. c #D1D4B7",
"b. c #D4D6BB",
"n. c #C4C4C5",
"m. c #C8C7C7",
"M. c #D1CECE",
"N. c #D7D9C2",
"B. c #D7D9C4",
"V. c #D9DCC3",
"C. c #D2D1D1",
"Z. c #DEDED4",
"A. c #DCDBDC",
"S. c #DEE0CB",
"D. c #DFE0D3",
"F. c #E2E4CE",
"G. c #E4E6D1",
"H. c #E9EADB",
"J. c #E3E1E1",
"K. c #E7E8E0",
"L. c #EBECE4",
"P. c #EDECED",
"I. c #EFF0E5",
"U. c #EFF0EA",
"Y. c #F0F1E7",
"T. c #F2F3EA",
"R. c #F6F6F2",
"E. c #F8F9F4",
"W. c #F7F7F8",
"Q. c #FEFEFD",
/* pixels */
"- - - - - - - - - - - - - - - - - - - - - - - - - - - - - - - - - - - - - - - - - - - - - - - - - - - - - - - - - - - - - - - - ",
"- - - - - - - - - - - - - - - - - - - - - - - - - - - - - - - - - - - - - - - - - - - - - - - - - - - - - - - - - - - - - - - - ",
"- - - - - - - - - - - - - - - - - - - - - - - - - - - - - - - - - - - - - - - - - - - - - - - - - - - - - - - - - - - - - - - - ",
"- - - - - - - - - - - - - - - - - - - - - - - - - - - - - - - - - - - - - - - - - - - - - - - - - - - - - - - - - - - - - - - - ",
"- - - - - - - - - - - - - - - - - - - - - - - - - - - - - - - - - - - - - - - - - - - - - - - - - - - - - - - - - - - - - - - - ",
"- - - - - - - - - - - - - - - - - - - - - - - - - - - - - - - - - - - - - - - - - - - - - - - - - - - - - - - - - - - - - - - - ",
"- - - - - - - - - - - - - - - - - - - - - - - - - - = = u u u u = = u u u u u u - - - - - - - - - - - - - - - - - - - - - - - - ",
"- - - - - - - - - - - - - - - - - - - - - - - - - - = = u u u u = = u u u u u u - - - - - - - - - - - - - - - - - - - - - - - - ",
"- - - - - - - - - - - - - - - - - - - - - - - - y y a a D D P P Y Y Y Y D D S S y y y y - - - - - - - - - - - - - - - - - - - - ",
"- - - - - - - - - - - - - - - - - - - - - - - - y y a a D D P P Y Y Y Y D D S S y y y y - - - - - - - - - - - - - - - - - - - - ",
"- - - - - - - - - - - - % % [ [ - - - - - - a a I I #.#.e.e.l.l.c.c.c.c.j.j.<.<.+.+.D D y y - - - - - - - - - - - - - - - - - - ",
"- - - - - - - - - - - - % % [ [ - - - - - - a a I I #.#.e.e.l.l.c.c.c.c.j.j.<.<.+.+.D D y y - - - - - - - - - - - - - - - - - - ",
"- - - - - - - - - - - - - - _ _ - - - - a a ' ' e.e.v.v.V.V.G.G.G.G.G.G.G.G.v.v.c.c.,.,.D D u u - - - - - - - - - - - - - - - - ",
"- - - - - - - - - - - - - - _ _ - - - - a a ' ' e.e.v.v.V.V.G.G.G.G.G.G.G.G.v.v.c.c.,.,.D D u u - - - - - - - - - - - - - - - - ",
"- - - - - - _ _ - - - - - - % % - - - - 0 0 e.e.V.V.G.G.H.H.R.R.R.R.R.R.R.R.G.G.G.G.v.v.*.*.e e - - - - - - - - - - - - - - - - ",
"- - - - - - _ _ - - - - - - % % - - - - 0 0 e.e.V.V.G.G.H.H.R.R.R.R.R.R.R.R.G.G.G.G.v.v.*.*.e e - - - - - - - - - - - - - - - - ",
"- - - - - - - - _ _ d d % % - - - - e e  . .j.j.F.F.H.H.Q.Q.Q.Q.Q.Q.Q.Q.Q.Q.E.E.F.F.S.S.w.w.G G u u = = - - - - - - - - - - - - ",
"- - - - - - - - _ _ d d % % - - - - e e  . .j.j.F.F.H.H.Q.Q.Q.Q.Q.Q.Q.Q.Q.Q.E.E.F.F.S.S.w.w.G G u u = = - - - - - - - - - - - - ",
"- - - - - - ` ` | | d d 1.1.1.1.f f 7 7 r.r.j.j.l.l.I.I.Q.Q.Q.Q.Q.Q.Q.Q.Q.Q.Q.Q.F.F.j.j.y.y.#.#.i i - - - - - - - - - - - - - - ",
"- - - - - - ` ` | | d d 1.1.1.1.f f 7 7 r.r.j.j.l.l.I.I.Q.Q.Q.Q.Q.Q.Q.Q.Q.Q.Q.Q.F.F.j.j.y.y.#.#.i i - - - - - - - - - - - - - - ",
"- - - - - - ` ` 9.9.;.;.( ( ( ( 1.1.7 7 j.j.F.F.G.G.G.G.Y.Y.Q.Q.Q.Q.Q.Q.Q.Q.G.G.G.G.G.G.V.V.*.*.i i - - - - - - - - - - - - - - ",
"- - - - - - ` ` 9.9.;.;.( ( ( ( 1.1.7 7 j.j.F.F.G.G.G.G.Y.Y.Q.Q.Q.Q.Q.Q.Q.Q.G.G.G.G.G.G.V.V.*.*.i i - - - - - - - - - - - - - - ",
"- - - - - - ` ` n.n.n.n.O.O.1.1.$ $ 7 7 j.j.G.G.W.W.Q.Q.T.T.T.T.Q.Q.Q.Q.H.H.Q.Q.E.E.E.E.b.b.&.&.i i - - - - - - - - - - - - - - ",
"- - - - - - ` ` n.n.n.n.O.O.1.1.$ $ 7 7 j.j.G.G.W.W.Q.Q.T.T.T.T.Q.Q.Q.Q.H.H.Q.Q.E.E.E.E.b.b.&.&.i i - - - - - - - - - - - - - - ",
"- - - - - - ` ` n.n.D.D.....& & = = 8 8 y.y.s.s.8.8.a.a.J.J.Y.Y.H.H.H.H.E.E.C.C.8.8.8.8.s.s.#.#.a a _ _ - - - - - - - - f f f f ",
"- - - - - - ` ` n.n.D.D.....& & = = 8 8 y.y.s.s.8.8.a.a.J.J.Y.Y.H.H.H.H.E.E.C.C.8.8.8.8.s.s.#.#.a a _ _ - - - - - - - - f f f f ",
"_ _ - - % % ` ` n.n.Q.Q.h.h.k k - - 8 8 *.*.v v     # # 8.8.P.P.Q.Q.Q.Q.A.A.E E     X X J J } } i i _ _ f f f f - - _ _ _ _ - - ",
"_ _ - - % % ` ` n.n.Q.Q.h.h.k k - - 8 8 *.*.v v     # # 8.8.P.P.Q.Q.Q.Q.A.A.E E     X X J J } } i i _ _ f f f f - - _ _ _ _ - - ",
"_ _ f f f f ` ` h.h.W.W.h.h.k k - - 7 7 C C             N N A.A.E.E.Q.Q.g.g.X X         o o V V p p % % f f % % f f f f % % - - ",
"_ _ f f f f ` ` h.h.W.W.h.h.k k - - 7 7 C C             N N A.A.E.E.Q.Q.g.g.X X         o o V V p p % % f f % % f f f f % % - - ",
"% % f f f f ' ' f.f.P.P.m.m.' ' 1.1.[ [ 0 0 # #     O O 3.3.n.n.z.z.z.z.m.m.v v     . . 3 3 j j s s - - % % % % f f i.i.i.i.- - ",
"% % f f f f ' ' f.f.P.P.m.m.' ' 1.1.[ [ 0 0 # #     O O 3.3.n.n.z.z.z.z.m.m.v v     . . 3 3 j j s s - - % % % % f f i.i.i.i.- - ",
"- - % % % % _ _ 7.7.A.A.P.P.q.q.) ) 1.1.5 5 9 9 b b 4.4.M.M.D.D.V.V.N.N.P.P.g.g.H H b b 9 9 < < f f d.d.d.d.- - f f o.o.i.i.- - ",
"- - % % % % _ _ 7.7.A.A.P.P.q.q.) ) 1.1.5 5 9 9 b b 4.4.M.M.D.D.V.V.N.N.P.P.g.g.H H b b 9 9 < < f f d.d.d.d.- - f f o.o.i.i.- - ",
"- - - - - - - - { { C.C.Q.Q.f.f.O.O.< < { { I I L L #.#.u.u.c.c.B.B.k.k.G.G.%.%.&.&.V V ' ' D D %.%.o.o.o.o.Q Q ; ; ; ; $ $ - - ",
"- - - - - - - - { { C.C.Q.Q.f.f.O.O.< < { { I I L L #.#.u.u.c.c.B.B.k.k.G.G.%.%.&.&.V V ' ' D D %.%.o.o.o.o.Q Q ; ; ; ; $ $ - - ",
"- - - - - - - - { { h.h.R.R.f.f.B B | | K.K.v.v.&.&.0 0 B B V V Z Z V V K K 8 8 V V w.w.B.B.l.l.S S c c c c z z T T + + - - - - ",
"- - - - - - - - { { h.h.R.R.f.f.B B | | K.K.v.v.&.&.0 0 B B V V Z Z V V K K 8 8 V V w.w.B.B.l.l.S S c c c c z z T T + + - - - - ",
"- - - - - - - - ' ' g.g.P.P.n.n.Z Z K.K.:.:.>.>.G.G.L.L.L.L.u.u..... . .Z.Z.L.L.P.P.x.x.c c z z z z ~ ~ / / ~ ~ m m + + - - - - ",
"- - - - - - - - ' ' g.g.P.P.n.n.Z Z K.K.:.:.>.>.G.G.L.L.L.L.u.u..... . .Z.Z.L.L.P.P.x.x.c c z z z z ~ ~ / / ~ ~ m m + + - - - - ",
"- - - - - - - - - - | | A.A.Q.Q.m m + + + + 0 0 @.@.@.@.,.,.G.G.I.I.E.E.k.k.@.@.@.@. . .z z 2.2.p.p.3.3.4 4 w w n n + + - - - - ",
"- - - - - - - - - - | | A.A.Q.Q.m m + + + + 0 0 @.@.@.@.,.,.G.G.I.I.E.E.k.k.@.@.@.@. . .z z 2.2.p.p.3.3.4 4 w w n n + + - - - - ",
"- - - - - - - - = = ] ] C.C.R.R.~ ~ 7.7.6.6.2 2 j.j.H.H.E.E.N.N.r.r.r.r.T.T.E.E.V.V.0.0.z z J J q q q q > > 8 8 n n + + - - - - ",
"- - - - - - - - = = ] ] C.C.R.R.~ ~ 7.7.6.6.2 2 j.j.H.H.E.E.N.N.r.r.r.r.T.T.E.E.V.V.0.0.z z J J q q q q > > 8 8 n n + + - - - - ",
"- - - - - - = = 1 1 n n ~ ~ 5.5.6.6.n n @ @ u u D D =.=.-.-.$.$.X.X.....>.>.$.$.:.:.B B z z W W A A A A C C R R m m + + - - - - ",
"- - - - - - = = 1 1 n n ~ ~ 5.5.6.6.n n @ @ u u D D =.=.-.-.$.$.X.X.....>.>.$.$.:.:.B B z z W W A A A A C C R R m m + + - - - - ",
"- - - - = = & & b b R R / / 4.4.2.2.2 2 e e B B j.j.S.S.-.-.r r | | V V V V k.k.H.H.>.>.z z 3.3.p.p.9.9.Q Q M M n n + + - - - - ",
"- - - - = = & & b b R R / / 4.4.2.2.2 2 e e B B j.j.S.S.-.-.r r | | V V V V k.k.H.H.>.>.z z 3.3.p.p.9.9.Q Q M M n n + + - - - - ",
"- - - - - - - - t t : : : : t.t.u.u.h h d d g g *.*.H.H.c.c.| | $.$.' ' =.=.H.H.Z.Z.F F x x ^ ^ ! ! W W 6 6 w w v v + + - - - - ",
"- - - - - - - - t t : : : : t.t.u.u.h h d d g g *.*.H.H.c.c.| | $.$.' ' =.=.H.H.Z.Z.F F x x ^ ^ ! ! W W 6 6 w w v v + + - - - - ",
"- - - - - - - - - - - - - - y y y y % % f f d d L L b.b.s.s.' ' F F F F +.+.N.N.l.l.5 5 z z ! ! A A q q > > w w n n + + - - - - ",
"- - - - - - - - - - - - - - y y y y % % f f d d L L b.b.s.s.' ' F F F F +.+.N.N.l.l.5 5 z z ! ! A A q q > > w w n n + + - - - - ",
"- - - - - - - - - - - - - - - - - - - - - - = = L L c.c.w.w.B B e e < < F F c.c.l.l.5 5 5 5 m m Q Q A A > > 6 6 2 2 , , - - - - ",
"- - - - - - - - - - - - - - - - - - - - - - = = L L c.c.w.w.B B e e < < F F c.c.l.l.5 5 5 5 m m Q Q A A > > 6 6 2 2 , , - - - - ",
"- - - - - - - - - - - - - - - - - - - - - - = = U U G.G.N.N.' ' y y e e >.>.Y.Y.c.c.8 8 * * 1 1 n n ~ ~ W W x x < < - - - - - - ",
"- - - - - - - - - - - - - - - - - - - - - - = = U U G.G.N.N.' ' y y e e >.>.Y.Y.c.c.8 8 * * 1 1 n n ~ ~ W W x x < < - - - - - - ",
"- - - - - - - - - - - - - - - - - - - - - - = = ] ] Q.Q.U.U.&.&.y y e e z.z.W.W.Y.Y.8 8 - - * * 1 1 l l l l < < - - - - - - - - ",
"- - - - - - - - - - - - - - - - - - - - - - = = ] ] Q.Q.U.U.&.&.y y e e z.z.W.W.Y.Y.8 8 - - * * 1 1 l l l l < < - - - - - - - - ",
"- - - - - - - - - - - - - - - - - - - - - - = = s s Z Z Z Z h h = = = = V V Z Z Z Z * * - - - - * * * * * * - - - - - - - - - - ",
"- - - - - - - - - - - - - - - - - - - - - - = = s s Z Z Z Z h h = = = = V V Z Z Z Z * * - - - - * * * * * * - - - - - - - - - - ",
"- - - - - - - - - - - - - - - - - - - - - - - - = = - - - - - - - - - - = = - - - - - - - - - - - - - - - - - - - - - - - - - - ",
"- - - - - - - - - - - - - - - - - - - - - - - - = = - - - - - - - - - - = = - - - - - - - - - - - - - - - - - - - - - - - - - - ",
"- - - - - - - - - - - - - - - - - - - - - - - - - - - - - - - - - - - - - - - - - - - - - - - - - - - - - - - - - - - - - - - - ",
"- - - - - - - - - - - - - - - - - - - - - - - - - - - - - - - - - - - - - - - - - - - - - - - - - - - - - - - - - - - - - - - - "
};
