/* XPM */
static char *monster_2[] = {
/* columns rows colors chars-per-pixel */
"64 64 167 2 ",
"   c #2E1E22",
".  c #322326",
"X  c #353537",
"o  c #3A3B32",
"O  c gray23",
"+  c #46393A",
"@  c #636917",
"#  c #686F16",
"$  c #67691E",
"%  c #6A6D1E",
"&  c #6E711D",
"*  c #72751B",
"=  c #564923",
"-  c #4D5023",
";  c #555725",
":  c #5C502B",
">  c #444533",
",  c #4A4B32",
"<  c #484938",
"1  c #525335",
"2  c #565936",
"3  c #595D33",
"4  c #5A5D3A",
"5  c #6E5E2C",
"6  c #625736",
"7  c #655A39",
"8  c #5E612D",
"9  c #5E613C",
"0  c #606421",
"q  c #696C22",
"w  c #696C26",
"e  c #626429",
"r  c #6C7026",
"t  c #747723",
"y  c #787B21",
"u  c #797C28",
"i  c #61643E",
"p  c #676A3B",
"a  c #77693D",
"s  c #7A7C35",
"d  c #454547",
"f  c #4B4C43",
"g  c #474749",
"h  c #4C4C4E",
"j  c #544E42",
"k  c #575041",
"l  c #57584F",
"z  c #5A594E",
"x  c #555557",
"c  c #5B5B5D",
"v  c #635D42",
"b  c #656443",
"n  c #6B6E46",
"m  c #6C6D4A",
"M  c #6E714C",
"N  c #737645",
"B  c #797846",
"V  c #72764E",
"C  c #76794E",
"Z  c #6A6D52",
"A  c #65665B",
"S  c #6A675F",
"D  c #736D5B",
"F  c #7A7D54",
"G  c #636362",
"H  c #686662",
"J  c #676769",
"K  c #6A6A6C",
"L  c #706665",
"P  c #746B66",
"I  c #756B6C",
"U  c #747476",
"Y  c #7A7473",
"T  c #79797C",
"R  c #A2783C",
"E  c #8B7E41",
"W  c #7F8124",
"Q  c #7F8149",
"!  c #7C8059",
"~  c #98873C",
"^  c #81834B",
"/  c #818454",
"(  c #A2814F",
")  c #BAA256",
"_  c #818462",
"`  c #848468",
"'  c #8A8D68",
"]  c #8F9267",
"[  c #929465",
"{  c #95996E",
"}  c #848673",
"|  c #82807D",
" . c #87887A",
".. c #8F8978",
"X. c #909373",
"o. c #969A72",
"O. c #9B9F72",
"+. c #939679",
"@. c #9C9F7E",
"#. c #9EA26F",
"$. c #A2A575",
"%. c #A7AA7D",
"&. c #C6A740",
"*. c #887E81",
"=. c #828284",
"-. c #8E8D83",
";. c #90878A",
":. c #979887",
">. c #98938B",
",. c #8E8E90",
"<. c #978F91",
"1. c #989995",
"2. c #97979A",
"3. c #9C9C9E",
"4. c #9EA08C",
"5. c #A6A685",
"6. c #A8AC81",
"7. c #ACA988",
"8. c #ACB082",
"9. c #B2B68C",
"0. c #A7A693",
"q. c #B3B692",
"w. c #B6B993",
"e. c #BABD9A",
"r. c #9CA8AD",
"t. c #A1A1A0",
"y. c #A6A6A9",
"u. c #AAAAAD",
"i. c #AFAFB2",
"p. c #B3B3B6",
"a. c #B7B7BB",
"s. c #BDC19B",
"d. c #C2C6A1",
"f. c #C5C9A6",
"g. c #CBCEAE",
"h. c #CDCFB5",
"j. c #C3C4BD",
"k. c #CED1B2",
"l. c #D0D3B6",
"z. c #D3D5BC",
"x. c #D6D9BE",
"c. c #C1C1C4",
"v. c #C9C5C6",
"b. c #C9CAC0",
"n. c #CCCBCC",
"m. c #D0CFC3",
"M. c #D1CDCE",
"N. c #D1D0C3",
"B. c #DBDDCA",
"V. c #D4D2D3",
"C. c #DFDFD6",
"Z. c #D5D5D8",
"A. c #DDDBDC",
"S. c #DEE0C8",
"D. c #E4E6D2",
"F. c #E7E9D7",
"G. c #E4E5DA",
"H. c #EBECDD",
"J. c #DEDEE0",
"K. c #E4E4E3",
"L. c #EDEEE3",
"P. c #F0F1E6",
"I. c #F3F4EC",
"U. c #F4F3F3",
"Y. c #F7F8F3",
"T. c #F9FAF6",
"R. c #FEFEFD",
/* pixels */
"* * * * * * * * * * * * * * * * * * * * * * * * * * * * * * * * * * * * * * * * * * * * * * * * * * * * * * * * * * * * * * * * ",
"* * * * * * * * * * * * * * * * * * * * * * * * * * * * * * * * * * * * * * * * * * * * * * * * * * * * * * * * * * * * * * * * ",
"* * * * * * * * * * * * * * * * * * * * * * * * * * * * * * * * * * * * * * * * * * * * * * * * * * * * * * * * * * * * * * * * ",
"* * * * * * * * * * * * * * * * * * * * * * * * * * * * * * * * * * * * * * * * * * * * * * * * * * * * * * * * * * * * * * * * ",
"* * * * * * * * * * * * * * * * * * * * * * * * * * * * * * * * * * * * * * * * * * * * * * * * * * * * * * * * * * * * * * * * ",
"* * * * * * * * * * * * * * * * * * * * * * * * * * * * * * * * * * * * * * * * * * * * * * * * * * * * * * * * * * * * * * * * ",
"* * * * * * * * * * * * * * * * * * * * * * * * * * q q e e e e e e e e e e q q * * * * * * * * * * * * * * * * * * * * * * * * ",
"* * * * * * * * * * * * * * * * * * * * * * * * * * q q e e e e e e e e e e q q * * * * * * * * * * * * * * * * * * * * * * * * ",
"* * * * * * * * * * * * * * * * * * * * * * r r e e N N / / o.o.O.O.o.o./ / N N 8 8 & & * * * * * * * * * * * * * * * * * * * * ",
"* * * * * * * * * * * * * * * * * * * * * * r r e e N N / / o.o.O.O.o.o./ / N N 8 8 & & * * * * * * * * * * * * * * * * * * * * ",
"* * * * * * * * * * * * * * W W * * * * % % p p O.O.9.9.l.l.S.S.S.S.B.B.k.k.9.9.O.O.p p & & * * * * * * * * * * * * * * * * * * ",
"* * * * * * * * * * * * * * W W * * * * % % p p O.O.9.9.l.l.S.S.S.S.B.B.k.k.9.9.O.O.p p & & * * * * * * * * * * * * * * * * * * ",
"* * * * * * * * * * * * y y y y * * & & i i $.$.g.g.D.D.D.D.D.D.D.D.D.D.D.D.D.D.g.g.#.#.9 9 * * * * * * * * * * * * * * * * * * ",
"* * * * * * * * * * * * y y y y * * & & i i $.$.g.g.D.D.D.D.D.D.D.D.D.D.D.D.D.D.g.g.#.#.9 9 * * * * * * * * * * * * * * * * * * ",
"* * * * * * y y * * * * y y # # * * t t M M f.f.D.D.F.F.T.T.R.R.R.R.R.R.Y.Y.D.D.D.D.d.d.n n % % * * * * * * * * * * * * * * * * ",
"* * * * * * y y * * * * y y # # * * t t M M f.f.D.D.F.F.T.T.R.R.R.R.R.R.Y.Y.D.D.D.D.d.d.n n % % * * * * * * * * * * * * * * * * ",
"* * * * s s * * W W y y # # * * * * 4 4 $.$.f.f.B.B.I.I.R.R.R.R.R.R.R.R.R.R.I.I.S.S.d.d.$.$.2 2 * * * * * * * * * * * * * * * * ",
"* * * * s s * * W W y y # # * * * * 4 4 $.$.f.f.B.B.I.I.R.R.R.R.R.R.R.R.R.R.I.I.S.S.d.d.$.$.2 2 * * * * * * * * * * * * * * * * ",
"* * * * 1.1.Q Q y y y y &.&.&.&.y y 4 4 s.s.g.g.x.x.L.L.T.T.R.R.R.R.R.R.T.T.H.H.x.x.k.k.e.e.2 2 * * * * * * * * * * * * * * * * ",
"* * * * 1.1.Q Q y y y y &.&.&.&.y y 4 4 s.s.g.g.x.x.L.L.T.T.R.R.R.R.R.R.T.T.H.H.x.x.k.k.e.e.2 2 * * * * * * * * * * * * * * * * ",
"* * * * 2.2.j.j.^ ^ &.&.R R R R &.&.9 9 d.d.F.F.I.I.I.I.L.L.R.R.R.R.R.R.P.P.I.I.I.I.F.F.s.s.2 2 * * * * * * * * * * * * * * * * ",
"* * * * 2.2.j.j.^ ^ &.&.R R R R &.&.9 9 d.d.F.F.I.I.I.I.L.L.R.R.R.R.R.R.P.P.I.I.I.I.F.F.s.s.2 2 * * * * * * * * * * * * * * * * ",
"* * t t 3.3.T.T.j.j.N N &.&.&.&.@ @ 4 4 s.s.m.m.v.v.J.J.I.I.L.L.H.H.L.L.I.I.A.A.v.v.m.m.s.s.2 2 * * * * * * * * * * * * * * * * ",
"* * t t 3.3.T.T.j.j.N N &.&.&.&.@ @ 4 4 s.s.m.m.v.v.J.J.I.I.L.L.H.H.L.L.I.I.A.A.v.v.m.m.s.s.2 2 * * * * * * * * * * * * * * * * ",
"* * * * 3.3.R.R.K.K.] ] # # @ @ * * 4 4 5.5.L L + + I I M.M.T.T.T.T.U.U.n.n.L L + + K K 5.5.2 2 W W W W * * * * * * # # * * W W ",
"* * * * 3.3.R.R.K.K.] ] # # @ @ * * 4 4 5.5.L L + + I I M.M.T.T.T.T.U.U.n.n.L L + + K K 5.5.2 2 W W W W * * * * * * # # * * W W ",
"W W y y 2.2.A.A.U.U.a.a.B B * * * * 2 2 v v             ;.;.U.U.R.R.U.U.*.*.            b b 2 2 * * W W * * W W * * ~ ~ W W # # ",
"W W y y 2.2.A.A.U.U.a.a.B B * * * * 2 2 v v             ;.;.U.U.R.R.U.U.*.*.            b b 2 2 * * W W * * W W * * ~ ~ W W # # ",
"W W y y u u u.u.R.R.n.n.Q Q * * * * ; ; 7 7 . .     . . <.<.L.L.S.S.K.K.;.;.. .     . . b b 8 8 W W # # * * # # * * W W # # * * ",
"W W y y u u u.u.R.R.n.n.Q Q * * * * ; ; 7 7 . .     . . <.<.L.L.S.S.K.K.;.;.. .     . . b b 8 8 W W # # * * # # * * W W # # * * ",
"# # y y u u :.:.Z.Z.J.J.{ { t t &.&.) ) 2 2 j j + + Y Y V.V.w.w.g.g.e.e.M.M.I I + + k k 1 1 W W * * W W # # # # W W r.r.r.r.* * ",
"# # y y u u :.:.Z.Z.J.J.{ { t t &.&.) ) 2 2 j j + + Y Y V.V.w.w.g.g.e.e.M.M.I I + + k k 1 1 W W * * W W # # # # W W r.r.r.r.* * ",
"* * # # # # s s p.p.K.K.u.u.) ) R R ~ ~ n n m m ` ` 0.0.G.G.B.B.I.I.B.B.C.C.0.0.E E S S M M 8 8 * *  . .| | q q y y ( ( r.r.* * ",
"* * # # # # s s p.p.K.K.u.u.) ) R R ~ ~ n n m m ` ` 0.0.G.G.B.B.I.I.B.B.C.C.0.0.E E S S M M 8 8 * *  . .| | q q y y ( ( r.r.* * ",
"* * * * * * t t X.X.c.c.c.c.6.6.E E { { h.h.9.9.! ! 9 9 ` ` C C +.+.F F _ _ i i _ _ q.q.A A > > G G h h g g Y Y * * @ @ @ @ * * ",
"* * * * * * t t X.X.c.c.c.c.6.6.E E { { h.h.9.9.! ! 9 9 ` ` C C +.+.F F _ _ i i _ _ q.q.A A > > G G h h g g Y Y * * @ @ @ @ * * ",
"* * * * * * * * s s a.a.V.V.y.y.f f A A D.D.g.g.N.N.b.b.b.b.' ' ! ! ] ] b.b.-.-.f f H H G G <.<.U U J J h h - - * * * * * * * * ",
"* * * * * * * * s s a.a.V.V.y.y.f f A A D.D.g.g.N.N.b.b.b.b.' ' ! ! ] ] b.b.-.-.f f H H G G <.<.U U J J h h - - * * * * * * * * ",
"* * * * * * * * e e U U c.c.v.v.c c h h l l ! ! %.%.8.8.s.s.F.F.x.x.F.F.s.s.D D G G 2.2.u.u.=.=.7 7 v v d d ; ; * * * * * * * * ",
"* * * * * * * * e e U U c.c.v.v.c c h h l l ! ! %.%.8.8.s.s.F.F.x.x.F.F.s.s.D D G G 2.2.u.u.=.=.7 7 v v d d ; ; * * * * * * * * ",
"* * * * * * 0 0 O O x x c c d d X X o o q q V V f.f.L.L.T.T.f.f.s.s.g.g.T.T.t.t.K K C C : : e e = = 7 7 d d ; ; * * * * * * * * ",
"* * * * * * 0 0 O O x x c c d d X X o o q q V V f.f.L.L.T.T.f.f.s.s.g.g.T.T.t.t.K K C C : : e e = = 7 7 d d ; ; * * * * * * * * ",
"* * * * * * * * 0 0 o o o o 1 1 3 3 & & & & w w ! ! #.#.6.6.[ [ [ [ [ [ %.%.Z Z K K E E 6 6 a a ,.,.J J d d ; ; * * * * * * * * ",
"* * * * * * * * 0 0 o o o o 1 1 3 3 & & & & w w ! ! #.#.6.6.[ [ [ [ [ [ %.%.Z Z K K E E 6 6 a a ,.,.J J d d ; ; * * * * * * * * ",
"* * * * * * * * * * * * * * * * * * y y r r V V g.g.z.z.! ! 2 2 #.#.4 4 _ _ } } K K i.i.a.a.y.y.S S z z d d ; ; * * * * * * * * ",
"* * * * * * * * * * * * * * * * * * y y r r V V g.g.z.z.! ! 2 2 #.#.4 4 _ _ } } K K i.i.a.a.y.y.S S z z d d ; ; * * * * * * * * ",
"* * * * * * * * * * * * * * * * * * W W y y p p 7.7.H.H.w.w.V V %.%.Q Q s.s.1.1.K K <.<.-.-.P P = = 7 7 d d ; ; * * * * * * * * ",
"* * * * * * * * * * * * * * * * * * W W y y p p 7.7.H.H.w.w.V V %.%.Q Q s.s.1.1.K K <.<.-.-.P P = = 7 7 d d ; ; * * * * * * * * ",
"* * * * * * * * * * * * * * * * * * W W y y r r X.X.B.B.@.@.C C C C F F @.@. . .G G ....: : 5 5 = = 7 7 d d ; ; * * * * * * * * ",
"* * * * * * * * * * * * * * * * * * W W y y r r X.X.B.B.@.@.C C C C F F @.@. . .G G ....: : 5 5 = = 7 7 d d ; ; * * * * * * * * ",
"* * * * * * * * * * * * * * * * * * # # y y w w ' ' x.x.o.o.4 4 $ $ 4 4 [ [ { { z z T T >.>.e e = = k k , , % % * * * * * * * * ",
"* * * * * * * * * * * * * * * * * * # # y y w w ' ' x.x.o.o.4 4 $ $ 4 4 [ [ { { z z T T >.>.e e = = k k , , % % * * * * * * * * ",
"* * * * * * * * * * * * * * * * * * * * * * q q X.X.L.L.P.P.{ { * * q q b b b b e e < < T T -.-.G G , , & & * * * * * * * * * * ",
"* * * * * * * * * * * * * * * * * * * * * * q q X.X.L.L.P.P.{ { * * q q b b b b e e < < T T -.-.G G , , & & * * * * * * * * * * ",
"* * * * * * * * * * * * * * * * * * * * * * q q 4.4.R.R.R.R.$.$.* * * * t t & & * * * * o o O O o o & & & & * * * * * * * * * * ",
"* * * * * * * * * * * * * * * * * * * * * * q q 4.4.R.R.R.R.$.$.* * * * t t & & * * * * o o O O o o & & & & * * * * * * * * * * ",
"* * * * * * * * * * * * * * * * * * * * * * * * * * * * * * * * * * * * * * * * * * * * * * * * * * * * * * * * * * * * * * * * ",
"* * * * * * * * * * * * * * * * * * * * * * * * * * * * * * * * * * * * * * * * * * * * * * * * * * * * * * * * * * * * * * * * ",
"* * * * * * * * * * * * * * * * * * * * * * * * * * * * * * * * * * * * * * * * * * * * * * * * * * * * * * * * * * * * * * * * ",
"* * * * * * * * * * * * * * * * * * * * * * * * * * * * * * * * * * * * * * * * * * * * * * * * * * * * * * * * * * * * * * * * ",
"* * * * * * * * * * * * * * * * * * * * * * * * * * * * * * * * * * * * * * * * * * * * * * * * * * * * * * * * * * * * * * * * ",
"* * * * * * * * * * * * * * * * * * * * * * * * * * * * * * * * * * * * * * * * * * * * * * * * * * * * * * * * * * * * * * * * ",
"* * * * * * * * * * * * * * * * * * * * * * * * * * * * * * * * * * * * * * * * * * * * * * * * * * * * * * * * * * * * * * * * ",
"* * * * * * * * * * * * * * * * * * * * * * * * * * * * * * * * * * * * * * * * * * * * * * * * * * * * * * * * * * * * * * * * "
};
