/* XPM */
static char *door_close[] = {
/* columns rows colors chars-per-pixel */
"64 64 89 1 ",
"  c #3D1D1D",
". c #421E1E",
"X c #431F1F",
"o c #452020",
"O c #482121",
"+ c #4E2323",
"@ c #4F2323",
"# c #512424",
"$ c #522424",
"% c #542525",
"& c #572727",
"* c #5B2929",
"= c #5C2929",
"- c #5D2A2A",
"; c #5F2B2B",
": c #602B2B",
"> c #642D2D",
", c #652E2E",
"< c #682F2F",
"1 c #692F2F",
"2 c #6A3030",
"3 c #6F3232",
"4 c #703232",
"5 c #713333",
"6 c #743535",
"7 c #753535",
"8 c #763636",
"9 c #793737",
"0 c #7A3838",
"q c #7C3939",
"w c #7F3C3C",
"e c #636917",
"r c #686F16",
"t c #746F1E",
"y c #72751B",
"u c #73721D",
"i c #6C5E22",
"p c #7C5B2E",
"a c #7E5334",
"s c #7E5930",
"d c #716123",
"f c #766225",
"g c #776725",
"h c #786427",
"j c #776D20",
"k c #786C23",
"l c #7B6826",
"z c #796328",
"x c #7E632B",
"c c #7B6728",
"v c #7D642A",
"b c #7E642B",
"n c #7F622D",
"m c #7D6A2B",
"M c #7F6B2C",
"N c #797723",
"B c #787B21",
"V c #813E3E",
"C c #815F2F",
"Z c #83423B",
"A c #864D3C",
"S c #815535",
"D c #825B32",
"F c #835A33",
"G c #855836",
"H c #8A533C",
"J c #80612E",
"K c #81692E",
"L c #82762A",
"P c #84712D",
"I c #844040",
"U c #864040",
"Y c #864440",
"T c #884343",
"R c #8A4242",
"E c #8B4343",
"W c #8A4741",
"Q c #8B4444",
"! c #8D4545",
"~ c #894841",
"^ c #8A4C40",
"/ c #8E4E42",
"( c #924747",
") c #934848",
"_ c #8D5140",
"` c #976D48",
"' c #7F8124",
"] c #938A8E",
"[ c #9CA8AD",
/* pixels */
"yyyyyyyyyyyyyyyyyyyyyyyyyyyyyyyyyyyyyyyyyyyyyyyyyyyyyyyyyyyyyyyy",
"yyyyyyyyyyyyyyyyyyyyyyyyyyyyyyyyyyyyyyyyyyyyyyyyyyyyyyyyyyyyyyyy",
"yyyyyyyyyyyyyyyyyyyyyyyyyyyyyyyyyyyyyyyyyyyyyyyyyyyyyyyyyyyyyyyy",
"yyyyyyyyyyyyyyyyyyyyyyyyyyyyyyyyyyyyyyyyyyyyyyyyyyyyyyyyyyyyyyyy",
"yyyyyyyyyyyyyyyyyyyyyyuuuulllllllllclluuuuyyyyyyyyyyyyyyyyyyyyyy",
"yyyyyyyyyyyyyyyyyyyyyyuuuulllllllllclluuuuyyyyyyyyyyyyyyyyyyyyyy",
"yyyyyyyyyyyyyyyyyyyyvvnnDD~WRRRRRR!WRRFFvvJcyyyyyyyyyyyyyyyyyyyy",
"yyyyyyyyyyyyyyyyyyyyvvJJDD~WRRRRRREERRFFcJccyyyyyyyyyyyyyyyyyyyy",
"yyyyyyyyyyyyyyyyuuxv//EEQQqq9999000000ERE!//cJyyyyyyyyyyyyyyyyyy",
"yyyyyyyyyyyyyyyyuuxv//EEQQqq9999000000RR!!//JJyyyyyyyyyyyyyyyyyy",
"yyyyyyyyyyyyyyLLHHZZVV99999955,23353990000EEAEHHtlyyyyyyyyyyyyyy",
"yyyyyyyyyyyyyyLLHHZZVV99999955123333990009RRE(HHkkyyyyyyyyyyyyyy",
"yyyyyyyyyyyyNN))VR999999995321,,,,,,66990099qqVZ((uuuuyyyyyyyyyy",
"yyyyyyyyyyyyNN))RI9999999935,121,,,,66990090qqVV((uuuuyyyyyyyyyy",
"yyyyyyBByyjj((RR9977,2211,1,==,,,,,,,,,,116700VVUZ((ttyyyyyyyyyy",
"yyyyyyBByyjj((RR9077,1,11111=*,,,,,,,,,,116700VqUV((ttyyyyyyyyyy",
"yyyyyyyy''__!!ww771,22,,>>====******==2,,2<26600VqZR^^yyyyyyyyyy",
"yyyyyyyy''__!!ww772,1,,,>,==*,******==,22<2<6600VVWI^^yyyyyyyyyy",
"yyyyyyyyKKWWww9955112,==**********$+====,,22,,3377wwIIzzyyyyyyyy",
"yyyyyyyyKKWWww9955,211==**********$$**==,,22,,3377wwIIzzyyyyyyyy",
"yyyyyyvv__QQ0077<<<<=;==******=*++$$%%**==22<<<<6600II~~vvyyyyyy",
"yyyyyyvv__QQ0077<<<<======****=*+++$%$**==22<<<<6600II~~vvyyyyyy",
"yyyyyyJJ!!II77,,<<<<=;***%%$$$++++++++%***==<<<<<<7700QQbbyyyyyy",
"yyyyyyJJ!!II77,,<<<<;=**%*%$$$++++++++*%**==<<<<<<7700QQbbyyyyyy",
"yyyyuuDDQQII9911<<=;****%%++++++OO$+++++======<<227700IIssuuBBBB",
"yyyyuuDDQQII9911<<;*****%%++++++OO$$++++======<<227700IIssuuBBBB",
"''BBcc!!II003311,,*;****++++++++  oooo$$$+**;;<,1,3300ww((PP''yy",
"''BBcc!!II003311,,;*****++++++++  oooo+$$$**;;,,123300ww((PP''yy",
"''BBmmRRII0022,,**==**$$++++ooXX    oo$$$+**===>,,213590IIMMrryy",
"''BBmmRRII0022,,=*==**$$++++oo X    oo+$$$***===212,5300IIMMrryy",
"rrBBMMQQVV00,,,,====**++++++XX      oo+$++++**,>121,220000]][[yy",
"rrBBMMQQVV00,,,,====**++++++XX      oo++++++**,,,,12220000]][[yy",
"yyrrddTTVV99<<<<>>**==++$$++XX        oo++++==,>,111220099``[[yy",
"yyrrddTTVV99<<<<>,**==++$$++XX        oo++++==,,1,2,220099``[[yy",
"yyuuccII0q00<<<<>>****$+++XX          oo$+$$**=;121,6600VViieeyy",
"yyuuccIIqq80<<<<>>****$$++XX          Oo$$+$**,=,,126700VViieeyy",
"yyyyccQQVV0955,,=>******++++oo  .o  o.oo%%****>>21,233wwRRggyyyy",
"yyyyccQQVV9955,,>=******++++oX  oo  ooOO%%****>,2,1233wwRRggyyyy",
"yyyyjjSSEE9977<<,,*=====%%XO#%oo+$OOOO$+**==**1111,,77wwIQggyyyy",
"yyyyjjSSQE9977<<,,======%%OO##oX+$OOOo$+**====11,22177wwTQggyyyy",
"yyyyyyhhIIII08<<,,====**$+%%%%+++++$##%%****,,112,2200IIIIggyyyy",
"yyyyyyhhIIII00<2,,====**$$%%%%++$+++##%%****,,11122200IIIIggyyyy",
"yyyyyynn~~TT7822,,>>********%*+++#**======,,1111,,7700ZZbbyyyyyy",
"yyyyyynn~WTT7822,,>>*********%++++**======,,1111,,7600ZZbbyyyyyy",
"yyyyyyyyCCIW0933122,====********=*==**==1,22,,117700~~FFyyyyyyyy",
"yyyyyyyyCCWZ0933,,11====**********==**==1222>,117700~~FFyyyyyyyy",
"yyyyyyyyyyAAII7755,21232>>=*******====,,22,,125399ww//yyyyyyyyyy",
"yyyyyyyyyyAAII773512,,22>>=*******====,,2221123399ww//yyyyyyyyyy",
"yyyyyyyyyyccIIwwww782<<<<<,,==,>>><<<<<<,1125587qqIIllyyyyyyyyyy",
"yyyyyyyyyyccIIwwww78<<<2<<,,**,>>,<<<<<222,,5587qqIIlhyyyyyyyyyy",
"yyyyyyyyyyyykk!!II00788866<<,,22,2<<3377990900ZZ!!kkyyyyyyyyyyyy",
"yyyyyyyyyyyykk!!II00888866<<,,222,<<3377990000ZZ!!kkyyyyyyyyyyyy",
"yyyyyyyyyyyyyyjjWWYY9907003322,,,,2277009999qVAWmmyyyyyyyyyyyyyy",
"yyyyyyyyyyyyyyjj~~YY9900003322,,212277009999VVWWmmyyyyyyyyyyyyyy",
"yyyyyyyyyyyyyyyyyyppEEWWTT000000330900qqTTIIppyyyyyyyyyyyyyyyyyy",
"yyyyyyyyyyyyyyyyyypsQEWWTT000080359900q0TRIIppyyyyyyyyyyyyyyyyyy",
"yyyyyyyyyyyyyyyyyyyynnFFGGRRVVVVqV00RTaappvvyyyyyyyyyyyyyyyyyyyy",
"yyyyyyyyyyyyyyyyyyyynnFFGGRRVVVVww00TTaappvvyyyyyyyyyyyyyyyyyyyy",
"yyyyyyyyyyyyyyyyyyyyyyyyttccffhhffffzzuuyyyyyyyyyyyyyyyyyyyyyyyy",
"yyyyyyyyyyyyyyyyyyyyyyyyttccffhhffffzzuuyyyyyyyyyyyyyyyyyyyyyyyy",
"yyyyyyyyyyyyyyyyyyyyyyyyyyyyyyyyyyyyyyyyyyyyyyyyyyyyyyyyyyyyyyyy",
"yyyyyyyyyyyyyyyyyyyyyyyyyyyyyyyyyyyyyyyyyyyyyyyyyyyyyyyyyyyyyyyy",
"yyyyyyyyyyyyyyyyyyyyyyyyyyyyyyyyyyyyyyyyyyyyyyyyyyyyyyyyyyyyyyyy",
"yyyyyyyyyyyyyyyyyyyyyyyyyyyyyyyyyyyyyyyyyyyyyyyyyyyyyyyyyyyyyyyy"
};
