/* XPM */
static char *door_open[] = {
/* columns rows colors chars-per-pixel */
"64 64 98 2 ",
"   c #1D3D3B",
".  c #1D3D3C",
"X  c #1E403F",
"o  c #686F16",
"O  c #61691A",
"+  c #667019",
"@  c #6F751E",
"#  c #72751B",
"$  c #6F7621",
"%  c #6F7721",
"&  c #6D7827",
"*  c #69772D",
"=  c #6B792B",
"-  c #6A792F",
";  c #787B21",
":  c #677B34",
">  c #667D37",
",  c #687B32",
"<  c #60753A",
"1  c #667D39",
"2  c #62793D",
"3  c #637C3C",
"4  c #647D3C",
"5  c #1F4443",
"6  c #204647",
"7  c #214849",
"8  c #224A4B",
"9  c #234C4E",
"0  c #234D4F",
"q  c #255151",
"w  c #265353",
"e  c #265554",
"r  c #275654",
"t  c #275856",
"y  c #285A57",
"u  c #295B58",
"i  c #295B59",
"p  c #2A5B5B",
"a  c #2B5C5D",
"s  c #2B5C5E",
"d  c #2D5D62",
"f  c #2D5D63",
"g  c #2F5F68",
"h  c #2F6069",
"j  c #30626B",
"k  c #31636C",
"l  c #32666F",
"z  c #336771",
"x  c #346A73",
"c  c #346A74",
"v  c #356C76",
"b  c #366E77",
"n  c #366E78",
"m  c #376F79",
"M  c #377079",
"N  c #38727B",
"B  c #39737C",
"V  c #3A747C",
"C  c #3B767D",
"Z  c #3C787F",
"A  c #3D7D7E",
"S  c #5F7942",
"D  c #5E7F49",
"F  c #5A7B50",
"G  c #4E7F6C",
"H  c #447C78",
"J  c #7F8124",
"K  c #6A813C",
"L  c #738437",
"P  c #5D8350",
"I  c #57875E",
"U  c #598659",
"Y  c #618043",
"T  c #62854D",
"R  c #538A68",
"E  c #478475",
"W  c #4B8272",
"Q  c #4D8872",
"!  c #4C8A76",
"~  c #47897F",
"^  c #498879",
"/  c #4E8F78",
"(  c #4D907B",
")  c #3D7980",
"_  c #3F7D82",
"`  c #3F7E83",
"'  c #408380",
"]  c #408084",
"[  c #428185",
"{  c #438785",
"}  c #438786",
"|  c #448A86",
" . c #458B86",
".. c #468E85",
"X. c #479085",
"o. c #489387",
"O. c #98A5AB",
"+. c #98A6AB",
/* pixels */
"# # # # # # # # # # # # # # # # # # # # # # # # # # # # # # # # # # # # # # # # # # # # # # # # # # # # # # # # # # # # # # # # ",
"# # # # # # # # # # # # # # # # # # # # # # # # # # # # # # # # # # # # # # # # # # # # # # # # # # # # # # # # # # # # # # # # ",
"# # # # # # # # # # # # # # # # # # # # # # # # # # # # # # # # # # # # # # # # # # # # # # # # # # # # # # # # # # # # # # # # ",
"# # # # # # # # # # # # # # # # # # # # # # # # # # # # # # # # # # # # # # # # # # # # # # # # # # # # # # # # # # # # # # # # ",
"# # # # # # # # # # # # # # # # # # # # # # # # # # I I R R R R R R R R R R R R # # # # # # # # # # # # # # # # # # # # # # # # ",
"# # # # # # # # # # # # # # # # # # # # # # # # # # I I R R R R R R R R R R R R # # # # # # # # # # # # # # # # # # # # # # # # ",
"# # # # # # # # # # # # # # # # # # # # 1 1 / / / / } { N B N N N N H H C C [ [ ( ( ( ( Y Y # # # # # # # # # # # # # # # # # # ",
"# # # # # # # # # # # # # # # # # # # # 1 1 / / / / { { N B N N N N H H C C [ [ ( ( ( ( Y Y # @ # # # # # # # # # # # # # # # # ",
"# # # # # # # # # # # # # # # # % % : : ....} } [ [ N N m m m v v v B M v v N N ] ] } } X.X.1 1 @ # # # # # # # # # # # # # # # ",
"# # # # # # # # # # # # # # # # % % : : ....} } [ [ N M v v m m M m M C v c N N ] ] } } | X.1 1 @ # # o # # # # # # # # # # # # ",
"# # # # # # # # # # # # # # L L o.o.' ' B B m m M m M M c x h h g g g f x x n n n n C C _ _ | } X.X.: K # # # # # # # # # # # # ",
"# # # # # # # # # # # # # # L L o.X.' ' B B m m n n M M x x h h g g f f x c n m n m C C _ _ | } ..X., K # # # # # # # # # # # # ",
"# # # # # # # # # # # # K K ( ( ' ' m m m v l x z z x x d g d d g g g g g g z z z z c c m m ) ) ' ] | ~ 3 3 # # # # # # # # # # ",
"# # # # # # # # # # # # K K ( ( ' ' m m v v x l z z x x d d d d g g g g g g z z z z c c m m C ) ] ] ~ ~ 3 K # # # # # # # # # # ",
"# # # # # # ; ; # # > > / / | | m m v m h l f f h h f f a a i i f d a f a a g g g g g g c c m m C C } } ^ ^ 2 1 # # # # # # # # ",
"# # # # # # ; ; # # > > / / | | m M m M h l h h h h f f a a i i f a a a a a g g g g g g c c m m C C } } ^ ^ 2 1 # # # # # # # # ",
"# # # # # # # # J J T T | | Z Z v m g g g g d d a a a a u y i i i i i i i i i i g g g g h h c c v M C C [ [ F F # # # # # # # # ",
"# # # # # # # # J J T T | | Z Z b v g g g g g d a a a a y y i i i i t i i i i i g g g g h h c c M v C C [ ] F F # # # # # # # # ",
"# # # # # # # # 1 1 ....Z Z m m N m g g g g d d u u u u i i i i t i w w 8 0 r i u u h g h h g g g g m v C ) [ [ S S # # # # # # ",
"# # # # # # # # 1 1 ....Z Z m m m m g g g g d d u u u u i i i i t t w w 8 0 i i a u h h h h g g g g m m ) ) [ ] S S # # # # # # ",
"# # # # # # % % X.X.| | C C v v g g g g d d y u i i r r t t w r r r 8 0 0 8 a u u u a i g g g g g g v v M C ` ` | | - - # # # # ",
"# # # # # # % % X.X.| | C C v v g g g g d d u u i i r r i i r r e q 9 9 0 0 u u u u i i g g g g g g v v C N ` _ | | - - # # # # ",
"# # # # # # % % ....[ [ C C j j g g g g a a u u e r q q e e 9 9 9 9 9 9 0 8 0 0 r r i i u a k h g g g g m n ) ) | | : , # # # # ",
"# # # # # # % % ....[ [ C C j j g g g g a d u u e e q q e e 9 9 9 9 9 9 0 0 8 8 r r i i u a h h g g g g n n ) ) | | : : # # # # ",
"# # # # # # U U } } _ _ N N j j g g f f u u u u r r 9 0 9 9 9 9 5 5 7 7 0 0 0 0 0 0 u u u u f f h h g g n n C C _ _ R R # # ; ; ",
"# # # # # # U U } } _ _ N N j j g g f f u u u u r r 0 0 9 9 9 9 5 8 7 7 0 0 0 7 0 8 u u u u f f h h h g n n C C _ _ R R # # ; ; ",
"J J ; ; # # X.X.[ [ ) ) z z g g g g i i u u u u q q 0 0 9 9 9 9 5 5 X . X X 0 0 0 0 w w u u u u g g g g z z n n Z Z o...J J # # ",
"J J ; ; # # X.X.[ [ ) ) z z g g g g i i u u u u q q 0 0 9 9 9 9 8 5 X . X . 9 0 0 8 w w u u u u g g g g z z n n Z Z ....J J # # ",
"J J ; ; ; ; [ [ [ [ ) ) l l g g i i i t i i q r 9 9 9 9 9 9             . . 9 9 0 0 w w i t i e g g g g g g z z M M | | o + # # ",
"J J ; ; ; ; [ [ [ [ ) ) l l g g i i i t u u e q 9 9 9 9 9 9             . . 9 9 0 8 w w t i e i g g g g g g z z M M | | o + # # ",
"o o ; ; ; ; ...._ _ M M l l g g u u i i u u e e 9 9 9 9 8 8 .           . . 7 7 0 0 0 q w w i i g g g g g g z z m m N N +.+.# # ",
"o o ; ; ; ; ...._ _ M M l l g g a a r i u u e q 9 9 9 9 8 8         . . . . 7 7 0 0 0 5 w w i i g g g g g g z z n m N N +.+.# # ",
"# # o o o o [ [ ] ] m M l l g g h l y y i i e e 9 9 9 9 5 5                     9 9 9 9 e e u u h h h h h h v x v b C B +.+.# # ",
"# # o o o o [ [ ] [ m M l l g g h h y t i i e e 9 9 9 9 5 5                     9 9 9 9 e q u u h h h h h h x x b b B B +.+.# # ",
"# # # # # # { { ) ) m v j l h g h h i i i i e e q q 9 9 5 5                     9 9 q q q w u u g g h h l h x x C B [ [ O O # # ",
"# # # # # # { { ) ) m v j j h h h h i i i i e e q q 9 9 5 5                     9 9 q q r q u u g g h h h h x x B B [ [ O O # # ",
"# # # # # # o.o.] ] Z Z x x h h h g y y u u u u 9 0 9 9 9 9 5 5 X X X X     7 7 0 0 u y a u a a g g g g h h v m ) Z | | # # # # ",
"# # # # # # o.o.] ] Z Z c c h l g g y y u u u u 0 0 9 9 9 9 5 5 X X X .     7 7 0 0 t u u a a u g g g g h h m m ) Z | | # # # # ",
"# # # # # # = = ` ` ) ) C M h h g g d d u u t i r r 9 9 9 9 9 9 9 9 9 9 7 7 9 9 0 0 t i i i f f g g g g k h M M ) ) [ [ # # # # ",
"# # # # # # = - ` _ ) ) M M l l g g d d u i i i r r 9 9 9 9 9 9 9 9 9 9 7 7 9 9 9 9 i i i r f f g g g g h k M M ) ) [ [ # # # # ",
"# # # # # # @ % [ [ [ [ C C h h g g d d u u i i i i e q r r 9 9 9 9 9 9 0 0 0 9 i i t i f f g g h h h h l l ) ) | } ` ` $ $ # # ",
"# # # # # # % % [ [ [ [ C C l h g g d g u u t t t i q e r r 9 9 9 9 9 9 0 8 9 9 i i u i f g g g g h h h l z ) ) } } ` ` $ $ # # ",
"# # # # # # % % ! ! [ [ C C h h g g g g i i u u i t u u u y q q 9 9 r r t i i i a i a a g g g g g g h h m m C N E E = = # # # # ",
"# # # # # # $ % ! ! [ [ C C h l g g g g i a u u i i u u y y q q 9 9 r r i t i i i i a a g g g g g g h h m m N N E E = = # # # # ",
"# # # # # # # # = = Q Q C ) z z f f h h f f f f u a i t y y y y u u u u t i a i a u g g g g g g z l m m Z Z Q Q , , # # # # # # ",
"# # # # # # # # = = Q Q ) ) z z f g l h f f f f u u r i y y y y u a u u r i i a a a g g g g g g l l m m ) ) Q Q , , # # # # # # ",
"# # # # # # # # # # D D } } C N x x z z f f g g f f d f u u y y u i a a g d a a h k g g g g g g v v m m ' ' P P # # # # # # # # ",
"# # # # # # # # # @ D D } } N N x x z l f f g g f f d f u u y u t u a a d d a a k h g g g g g g v v m m ' [ P P # # # # # # # # ",
"# # # # # # # # # # = = G G H H ] ] m m z z h h g g g g d d a a g g g d g g g g g g j j z z v v m m ] ] G G & & # # # # # # # # ",
"# # # # # # # # # # = * G G H H ] [ m m z z h h g g g g d d a a g g d d g g g g g g j j z x v v m m ] ] G G & & # # # # # # # # ",
"# # # # # # # # # # # # # # / / [ [ ` _ m m v v b v g g g g g g d d g g g g v v v v v v v v Z ) ] ] / / @ @ # # # # # # # # # # ",
"# # # # # # # # # # # # # # / / [ [ ` _ m m m v b v g g g g g g d d g g g g v v v v v v v v Z Z ] ] / / @ @ # # # # # # # # # # ",
"# # # # # # # # # # # # # # # # / / H H Z Z m m N M m m g g g g g g k k j j N m N N v b N N H H / / # # # # # # # # # # # # # # ",
"# # # # # # # # # # # # # # # # / / H H Z Z m m N b m b g g g j g g k k j j b m N N b b N N H H / / # # # # # # # # # # # # # # ",
"# # # # # # # # # # # # # # # # # # & & W W } } { { Z Z Z Z v b x x c c b b Z Z Z Z [ [ W W * * # # # # # # # # # # # # # # # # ",
"# # # # # # # # # # # # # # # # # # & & W W } | { { Z Z Z Z b b x c c c b b Z Z Z Z [ [ W W * * # # # # # # # # # # # # # # # # ",
"# # # # # # # # # # # # # # # # # # # # = = P P T T | | [ [ ) ) Z Z B B Z A ` ` F F F F : , # # # # # # # # # # # # # # # # # # ",
"# # # # # # # # # # # # # # # # # # # # = = P P T T  ...[ [ ) ) Z Z B B A A ` ` F F F F , , # # # # # # # # # # # # # # # # # # ",
"# # # # # # # # # # # # # # # # # # # # # # # # # # 1 1 2 2 2 2 2 2 < < 4 4 2 2 # # # # # # # # # # # # # # # # # # # # # # # # ",
"# # # # # # # # # # # # # # # # # # # # # # # # # # 1 1 2 2 2 2 2 2 < < 4 1 2 2 # # # # # # # # # # # # # # # # # # # # # # # # ",
"# # # # # # # # # # # # # # # # # # # # # # # # # # # # # # # # # # # # # # # # # # # # # # # # # # # # # # # # # # # # # # # # ",
"# # # # # # # # # # # # # # # # # # # # # # # # # # # # # # # # # # # # # # # # # # # # # # # # # # # # # # # # # # # # # # # # ",
"# # # # # # # # # # # # # # # # # # # # # # # # # # # # # # # # # # # # # # # # # # # # # # # # # # # # # # # # # # # # # # # # ",
"# # # # # # # # # # # # # # # # # # # # # # # # # # # # # # # # # # # # # # # # # # # # # # # # # # # # # # # # # # # # # # # # "
};
